<?xml version="1.0" encoding="iso-8859-1"?>
<!-- Generator: Adobe Illustrator 19.0.0, SVG Export Plug-In . SVG Version: 6.00 Build 0)  -->
<svg version="1.1" id="Capa_1" xmlns="http://www.w3.org/2000/svg" xmlns:xlink="http://www.w3.org/1999/xlink" x="0px" y="0px"
	 viewBox="0 0 512 512" style="enable-background:new 0 0 512 512;" xml:space="preserve">
<g>
	<g>
		<g>
			<polygon points="464,208 432,208 432,240 368,240 368,208 336,208 336,240 272,240 272,176 304,176 304,144 272,144 272,80 
				304,80 304,48 272,48 272,0 240,0 240,48 208,48 208,80 240,80 240,144 208,144 208,176 240,176 240,240 176,240 176,208 
				144,208 144,240 80,240 80,208 48,208 48,240 0,240 0,272 48,272 48,304 80,304 80,272 144,272 144,304 176,304 176,272 240,272 
				240,336 208,336 208,368 240,368 240,432 208,432 208,464 240,464 240,512 272,512 272,464 304,464 304,432 272,432 272,368 
				304,368 304,336 272,336 272,272 336,272 336,304 368,304 368,272 432,272 432,304 464,304 464,272 512,272 512,240 464,240 			
				"/>
			<path d="M392.448,106.336C366.37,77.057,351.973,39.209,352,0h-32c-0.028,47.059,17.25,92.486,48.544,127.632L392.448,106.336z"
				/>
			<path d="M464.928,152.976l-9.408,30.592c18.303,5.601,37.339,8.443,56.48,8.432v-32
				C496.047,160.022,480.18,157.655,464.928,152.976z"/>
			<path d="M438.096,141.952c-8.605-4.489-16.783-9.754-24.432-15.728l-19.712,25.216c9.19,7.164,19.006,13.488,29.328,18.896
				L438.096,141.952z"/>
			<path d="M0,352c15.953-0.022,31.82,2.345,47.072,7.024l9.408-30.592C38.177,322.831,19.141,319.989,0,320V352z"/>
			<path d="M119.552,405.664C145.63,434.943,160.027,472.791,160,512h32c0.028-47.059-17.25-92.486-48.544-127.632L119.552,405.664z
				"/>
			<path d="M73.904,370.048c8.605,4.489,16.783,9.754,24.432,15.728l19.712-25.216c-9.19-7.164-19.006-13.488-29.328-18.896
				L73.904,370.048z"/>
		</g>
	</g>
</g>
<g>
</g>
<g>
</g>
<g>
</g>
<g>
</g>
<g>
</g>
<g>
</g>
<g>
</g>
<g>
</g>
<g>
</g>
<g>
</g>
<g>
</g>
<g>
</g>
<g>
</g>
<g>
</g>
<g>
</g>
</svg>
