<?xml version="1.0" encoding="UTF-8" standalone="no"?>
<!-- Created with Inkscape (http://www.inkscape.org/) -->

<svg
   version="1.1"
   id="svg3252"
   xml:space="preserve"
   width="682.66669"
   height="682.66669"
   viewBox="0 0 682.66669 682.66669"
   xmlns="http://www.w3.org/2000/svg"
   xmlns:svg="http://www.w3.org/2000/svg"><defs
     id="defs3256"><clipPath
       clipPathUnits="userSpaceOnUse"
       id="clipPath3266"><path
         d="M 0,512 H 512 V 0 H 0 Z"
         id="path3264" /></clipPath></defs><g
     id="g3258"
     transform="matrix(1.3333333,0,0,-1.3333333,0,682.66667)"><g
       id="g3260"><g
         id="g3262"
         clip-path="url(#clipPath3266)"><g
           id="g3268"
           transform="translate(190.1953,404.7334)"><path
             d="M 0,0 V 65.06 L 43.987,1.364 c 0.815,-1.177 1.689,-0.6 1.689,0.832 l -0.609,62.986"
             style="fill:none;stroke:#000000;stroke-width:15;stroke-linecap:round;stroke-linejoin:round;stroke-miterlimit:10;stroke-dasharray:none;stroke-opacity:1"
             id="path3270" /></g><g
           id="g3272"
           transform="translate(159.043,469.915)"><path
             d="M 0,0 V -65.182"
             style="fill:none;stroke:#000000;stroke-width:15;stroke-linecap:round;stroke-linejoin:round;stroke-miterlimit:10;stroke-dasharray:none;stroke-opacity:1"
             id="path3274" /></g><g
           id="g3276"
           transform="translate(122.2451,454.917)"><path
             d="m 0,0 c 0,-8.284 -6.715,-14.999 -14.999,-14.999 -4.107,0 -18.933,-0.066 -18.933,-0.066 V 0 14.998 h 18.933 C -6.715,14.998 0,8.283 0,0 Z"
             style="fill:none;stroke:#000000;stroke-width:15;stroke-linecap:round;stroke-linejoin:round;stroke-miterlimit:10;stroke-dasharray:none;stroke-opacity:1"
             id="path3278" /></g><g
           id="g3280"
           transform="translate(128.0981,422.3555)"><path
             d="m 0,0 c 0,-9.689 -7.855,-17.545 -17.545,-17.545 -4.805,0 -22.24,-0.077 -22.24,-0.077 V 0 17.545 h 22.24 C -7.855,17.545 0,9.69 0,0 Z"
             style="fill:none;stroke:#000000;stroke-width:15;stroke-linecap:round;stroke-linejoin:round;stroke-miterlimit:10;stroke-dasharray:none;stroke-opacity:1"
             id="path3282" /></g><g
           id="g3284"
           transform="translate(317.5054,464.3486)"><path
             d="m 0,0 c -5.201,3.515 -11.472,5.566 -18.222,5.566 -17.999,0 -32.591,-14.591 -32.591,-32.59 0,-17.999 14.592,-32.591 32.591,-32.591 18,0 28.135,14.592 28.135,32.591 H -9.586"
             style="fill:none;stroke:#000000;stroke-width:15;stroke-linecap:round;stroke-linejoin:round;stroke-miterlimit:10;stroke-dasharray:none;stroke-opacity:1"
             id="path3286" /></g><g
           id="g3288"
           transform="translate(423.687,437.3242)"><path
             d="m 0,0 c 0,-17.999 -14.591,-32.591 -32.591,-32.591 -17.999,0 -32.591,14.592 -32.591,32.591 0,17.999 14.592,32.591 32.591,32.591 C -14.591,32.591 0,17.999 0,0 Z"
             style="fill:none;stroke:#000000;stroke-width:15;stroke-linecap:round;stroke-linejoin:round;stroke-miterlimit:10;stroke-dasharray:none;stroke-opacity:1"
             id="path3290" /></g><g
           id="g3292"
           transform="translate(382.0698,366.1104)"><path
             d="m 0,0 h 33.54 c 4.46,0 8.08,-3.62 8.08,-8.08 v -16.17 c 0,-4.46 -3.62,-8.08 -8.08,-8.08 h -319.22 c -4.46,0 -8.08,3.62 -8.08,8.08 v 16.17 c 0,4.46 3.62,8.08 8.08,8.08 L -35,0"
             style="fill:none;stroke:#000000;stroke-width:15;stroke-linecap:round;stroke-linejoin:round;stroke-miterlimit:10;stroke-dasharray:none;stroke-opacity:1"
             id="path3294" /></g><g
           id="g3296"
           transform="translate(155.3877,233.7764)"><path
             d="m 0,0 h -67.075 v 54.549 c 0,5.579 4.523,10.101 10.102,10.101 H 0 Z"
             style="fill:none;stroke:#000000;stroke-width:15;stroke-linecap:round;stroke-linejoin:round;stroke-miterlimit:10;stroke-dasharray:none;stroke-opacity:1"
             id="path3298" /></g><path
           d="m 222.462,233.776 h -67.075 v 64.65 h 67.075 z"
           style="fill:none;stroke:#000000;stroke-width:15;stroke-linecap:round;stroke-linejoin:round;stroke-miterlimit:10;stroke-dasharray:none;stroke-opacity:1"
           id="path3300" /><path
           d="m 289.538,233.776 h -67.075 v 64.65 h 67.075 z"
           style="fill:none;stroke:#000000;stroke-width:15;stroke-linecap:round;stroke-linejoin:round;stroke-miterlimit:10;stroke-dasharray:none;stroke-opacity:1"
           id="path3302" /><path
           d="m 356.612,233.776 h -67.075 v 64.65 h 67.075 z"
           style="fill:none;stroke:#000000;stroke-width:15;stroke-linecap:round;stroke-linejoin:round;stroke-miterlimit:10;stroke-dasharray:none;stroke-opacity:1"
           id="path3304" /><g
           id="g3306"
           transform="translate(423.687,233.7764)"><path
             d="m 0,0 h -67.075 v 64.65 h 56.973 C -4.522,64.65 0,60.128 0,54.549 Z"
             style="fill:none;stroke:#000000;stroke-width:15;stroke-linecap:round;stroke-linejoin:round;stroke-miterlimit:10;stroke-dasharray:none;stroke-opacity:1"
             id="path3308" /></g><path
           d="M 155.388,169.126 H 88.313 v 64.65 h 67.075 z"
           style="fill:none;stroke:#000000;stroke-width:15;stroke-linecap:round;stroke-linejoin:round;stroke-miterlimit:10;stroke-dasharray:none;stroke-opacity:1"
           id="path3310" /><path
           d="m 222.462,169.126 h -67.075 v 64.65 h 67.075 z"
           style="fill:none;stroke:#000000;stroke-width:15;stroke-linecap:round;stroke-linejoin:round;stroke-miterlimit:10;stroke-dasharray:none;stroke-opacity:1"
           id="path3312" /><path
           d="m 289.538,169.126 h -67.075 v 64.65 h 67.075 z"
           style="fill:none;stroke:#000000;stroke-width:15;stroke-linecap:round;stroke-linejoin:round;stroke-miterlimit:10;stroke-dasharray:none;stroke-opacity:1"
           id="path3314" /><path
           d="m 356.612,169.126 h -67.075 v 64.65 h 67.075 z"
           style="fill:none;stroke:#000000;stroke-width:15;stroke-linecap:round;stroke-linejoin:round;stroke-miterlimit:10;stroke-dasharray:none;stroke-opacity:1"
           id="path3316" /><path
           d="m 423.687,169.126 h -67.075 v 64.65 h 67.075 z"
           style="fill:none;stroke:#000000;stroke-width:15;stroke-linecap:round;stroke-linejoin:round;stroke-miterlimit:10;stroke-dasharray:none;stroke-opacity:1"
           id="path3318" /><path
           d="M 155.388,104.476 H 88.313 v 64.65 h 67.075 z"
           style="fill:none;stroke:#000000;stroke-width:15;stroke-linecap:round;stroke-linejoin:round;stroke-miterlimit:10;stroke-dasharray:none;stroke-opacity:1"
           id="path3320" /><path
           d="m 222.462,104.476 h -67.075 v 64.65 h 67.075 z"
           style="fill:none;stroke:#000000;stroke-width:15;stroke-linecap:round;stroke-linejoin:round;stroke-miterlimit:10;stroke-dasharray:none;stroke-opacity:1"
           id="path3322" /><path
           d="m 289.538,104.476 h -67.075 v 64.65 h 67.075 z"
           style="fill:none;stroke:#000000;stroke-width:15;stroke-linecap:round;stroke-linejoin:round;stroke-miterlimit:10;stroke-dasharray:none;stroke-opacity:1"
           id="path3324" /><path
           d="m 356.612,104.476 h -67.075 v 64.65 h 67.075 z"
           style="fill:none;stroke:#000000;stroke-width:15;stroke-linecap:round;stroke-linejoin:round;stroke-miterlimit:10;stroke-dasharray:none;stroke-opacity:1"
           id="path3326" /><path
           d="m 423.687,104.476 h -67.075 v 64.65 h 67.075 z"
           style="fill:none;stroke:#000000;stroke-width:15;stroke-linecap:round;stroke-linejoin:round;stroke-miterlimit:10;stroke-dasharray:none;stroke-opacity:1"
           id="path3328" /><g
           id="g3330"
           transform="translate(155.3877,39.8252)"><path
             d="m 0,0 h -56.973 c -5.579,0 -10.102,4.522 -10.102,10.102 V 64.65 H 0 Z"
             style="fill:none;stroke:#000000;stroke-width:15;stroke-linecap:round;stroke-linejoin:round;stroke-miterlimit:10;stroke-dasharray:none;stroke-opacity:1"
             id="path3332" /></g><path
           d="m 222.462,39.825 h -67.075 v 64.65 h 67.075 z"
           style="fill:none;stroke:#000000;stroke-width:15;stroke-linecap:round;stroke-linejoin:round;stroke-miterlimit:10;stroke-dasharray:none;stroke-opacity:1"
           id="path3334" /><path
           d="m 289.538,39.825 h -67.075 v 64.65 h 67.075 z"
           style="fill:none;stroke:#000000;stroke-width:15;stroke-linecap:round;stroke-linejoin:round;stroke-miterlimit:10;stroke-dasharray:none;stroke-opacity:1"
           id="path3336" /><path
           d="m 356.612,39.825 h -67.075 v 64.65 h 67.075 z"
           style="fill:none;stroke:#000000;stroke-width:15;stroke-linecap:round;stroke-linejoin:round;stroke-miterlimit:10;stroke-dasharray:none;stroke-opacity:1"
           id="path3338" /><g
           id="g3340"
           transform="translate(413.5854,39.8252)"><path
             d="M 0,0 H -56.973 V 64.65 H 10.102 V 10.102 C 10.102,4.522 5.579,0 0,0 Z"
             style="fill:none;stroke:#000000;stroke-width:15;stroke-linecap:round;stroke-linejoin:round;stroke-miterlimit:10;stroke-dasharray:none;stroke-opacity:1"
             id="path3342" /></g><g
           id="g3344"
           transform="translate(331.1562,201.4512)"><path
             d="m 0,0 c 0,-4.463 -3.618,-8.081 -8.082,-8.081 -4.462,0 -8.081,3.618 -8.081,8.081 0,4.463 3.619,8.081 8.081,8.081 C -3.618,8.081 0,4.463 0,0"
             style="fill:#000000;fill-opacity:1;fill-rule:nonzero;stroke:none"
             id="path3346" /></g><g
           id="g3348"
           transform="translate(398.231,72.1504)"><path
             d="m 0,0 c 0,-4.463 -3.618,-8.081 -8.082,-8.081 -4.462,0 -8.081,3.618 -8.081,8.081 0,4.463 3.619,8.081 8.081,8.081 C -3.618,8.081 0,4.463 0,0"
             style="fill:#000000;fill-opacity:1;fill-rule:nonzero;stroke:none"
             id="path3350" /></g><g
           id="g3352"
           transform="translate(53.9702,131.3301)"><path
             d="m 0,0 v 352.97 c 0,11.15 9.04,20.2 20.2,20.2 h 363.66 c 11.16,0 20.2,-9.05 20.2,-20.2 V 294.8"
             style="fill:none;stroke:#000000;stroke-width:15;stroke-linecap:round;stroke-linejoin:round;stroke-miterlimit:10;stroke-dasharray:none;stroke-opacity:1"
             id="path3354" /></g><g
           id="g3356"
           transform="translate(458.0298,391.1299)"><path
             d="m 0,0 v -363.43 c 0,-11.15 -9.04,-20.2 -20.2,-20.2 h -363.66 c -11.16,0 -20.2,9.05 -20.2,20.2 v 68.63"
             style="fill:none;stroke:#000000;stroke-width:15;stroke-linecap:round;stroke-linejoin:round;stroke-miterlimit:10;stroke-dasharray:none;stroke-opacity:1"
             id="path3358" /></g></g></g></g></svg>
