<svg xmlns="http://www.w3.org/2000/svg" version="1.1" xmlns:xlink="http://www.w3.org/1999/xlink" xmlns:svgjs="http://svgjs.com/svgjs" width="512" height="512" x="0" y="0" viewBox="0 0 512 512" style="enable-background:new 0 0 512 512" xml:space="preserve" class=""><g><path d="M304 128h32v32h-32zM240 128h32v32h-32z" fill="#57068c" data-original="#000000" class=""></path><path d="M128 0C83.839.053 48.053 35.839 48 80v352c.053 44.161 35.839 79.947 80 80h336V128h-96v32h64v320H128c-26.51 0-48-21.49-48-48V143.584A79.17 79.17 0 0 0 128 160h80v-32h-80c-26.51 0-48-21.49-48-48s21.49-48 48-48h336V0H128z" fill="#57068c" data-original="#000000" class=""></path><path d="M128 64h336v32H128z" fill="#57068c" data-original="#000000" class=""></path></g></svg>