<?xml version="1.0" encoding="iso-8859-1"?>
<!-- Generator: Adobe Illustrator 19.0.0, SVG Export Plug-In . SVG Version: 6.00 Build 0)  -->
<svg version="1.1" id="Capa_1" xmlns="http://www.w3.org/2000/svg" xmlns:xlink="http://www.w3.org/1999/xlink" x="0px" y="0px"
	 viewBox="0 0 494.464 494.464" style="enable-background:new 0 0 494.464 494.464;" xml:space="preserve">
<g>
	<g>
		<g>
			<path d="M408.736,316.448l-6.816-14.512l92.544-43.44L235.968,0L194.48,88.352l28.976,13.6l22.096-47.104l194.064,194.064
				l-246.4,115.632l-63.296-63.312l25.6-54.4l-28.96-13.6l-28.304,60.16L0,352.336l142.128,142.128l58.944-98.256l49.312-23.152
				l6.784,14.48c11.252,23.997,39.824,34.332,63.824,23.088l64.656-30.304c24.007-11.244,34.353-39.821,23.109-63.828
				C408.75,316.477,408.743,316.463,408.736,316.448z M135.776,442.848l-84.16-84.16l56.576-33.936l61.52,61.52L135.776,442.848z
				 M380.336,342.256c-1.432,3.996-4.406,7.252-8.256,9.04l-64.672,30.368c-8.006,3.737-17.525,0.277-21.264-7.728l-6.8-14.4
				l93.664-44l6.832,14.528C381.609,333.903,381.788,338.286,380.336,342.256z"/>
			<rect x="145.39" y="180.541" transform="matrix(0.9053 0.4248 -0.4248 0.9053 98.7814 -49.9449)" width="32" height="32"/>
			<rect x="172.57" y="122.615" transform="matrix(0.9053 0.4248 -0.4248 0.9053 76.7481 -66.9783)" width="32" height="32"/>
		</g>
	</g>
</g>
<g>
</g>
<g>
</g>
<g>
</g>
<g>
</g>
<g>
</g>
<g>
</g>
<g>
</g>
<g>
</g>
<g>
</g>
<g>
</g>
<g>
</g>
<g>
</g>
<g>
</g>
<g>
</g>
<g>
</g>
</svg>
