<svg xmlns="http://www.w3.org/2000/svg" version="1.1" xmlns:xlink="http://www.w3.org/1999/xlink" xmlns:svgjs="http://svgjs.com/svgjs" width="512" height="512" x="0" y="0" viewBox="0 0 494.464 494.464" style="enable-background:new 0 0 512 512" xml:space="preserve" class=""><g><path d="m408.736 316.448-6.816-14.512 92.544-43.44L235.968 0 194.48 88.352l28.976 13.6 22.096-47.104 194.064 194.064-246.4 115.632-63.296-63.312 25.6-54.4-28.96-13.6-28.304 60.16L0 352.336l142.128 142.128 58.944-98.256 49.312-23.152 6.784 14.48c11.252 23.997 39.824 34.332 63.824 23.088l64.656-30.304c24.007-11.244 34.353-39.821 23.109-63.828l-.021-.044zm-272.96 126.4-84.16-84.16 56.576-33.936 61.52 61.52-33.936 56.576zm244.56-100.592a15.872 15.872 0 0 1-8.256 9.04l-64.672 30.368c-8.006 3.737-17.525.277-21.264-7.728l-6.8-14.4 93.664-44 6.832 14.528a16 16 0 0 1 .496 12.192z" fill="#57068c" data-original="#000000" class=""></path><path d="m153.71 175.26 28.969 13.594-13.594 28.97-28.97-13.594zM180.889 117.333l28.97 13.593-13.594 28.97-28.97-13.594z" fill="#57068c" data-original="#000000" class=""></path></g></svg>