<?xml version="1.0" encoding="iso-8859-1"?>
<!-- Generator: Adobe Illustrator 19.0.0, SVG Export Plug-In . SVG Version: 6.00 Build 0)  -->
<svg version="1.1" id="Capa_1" xmlns="http://www.w3.org/2000/svg" xmlns:xlink="http://www.w3.org/1999/xlink" x="0px" y="0px"
	 viewBox="0 0 512 512" style="enable-background:new 0 0 512 512;" xml:space="preserve">
<g>
	<g>
		<g>
			<path d="M448,48V0h-32v48H96V0H64v48H0v464h406.624L512,406.624V48H448z M416,457.376V416h41.376L416,457.376z M480,128H192v32
				h288v224h-96v96H32V160h64v-32H32V80h448V128z"/>
			<rect x="128" y="128" width="32" height="32"/>
			<path d="M175.312,436.8L256,395.872l80.688,40.928l-15.408-86.72L387.312,288l-91.2-12.8L256,196.896l-40.112,78.4l-91.2,12.8
				l66.032,62.032L175.312,436.8z M236.8,304.64l19.2-37.536l19.2,37.536l41.472,5.792l-29.968,28.16l7.248,40.64L256,360
				l-37.968,19.2l7.248-40.64l-29.968-28.16L236.8,304.64z"/>
		</g>
	</g>
</g>
<g>
</g>
<g>
</g>
<g>
</g>
<g>
</g>
<g>
</g>
<g>
</g>
<g>
</g>
<g>
</g>
<g>
</g>
<g>
</g>
<g>
</g>
<g>
</g>
<g>
</g>
<g>
</g>
<g>
</g>
</svg>
