<svg xmlns="http://www.w3.org/2000/svg" version="1.1" xmlns:xlink="http://www.w3.org/1999/xlink" xmlns:svgjs="http://svgjs.com/svgjs" width="512" height="512" x="0" y="0" viewBox="0 0 512 512" style="enable-background:new 0 0 512 512" xml:space="preserve" class=""><g><path d="M448 48V0h-32v48H96V0H64v48H0v464h406.624L512 406.624V48h-64zm-32 409.376V416h41.376L416 457.376zM480 128H192v32h288v224h-96v96H32V160h64v-32H32V80h448v48z" fill="#57068c" data-original="#000000"></path><path d="M128 128h32v32h-32zM175.312 436.8 256 395.872l80.688 40.928-15.408-86.72L387.312 288l-91.2-12.8L256 196.896l-40.112 78.4-91.2 12.8 66.032 62.032-15.408 86.672zM236.8 304.64l19.2-37.536 19.2 37.536 41.472 5.792-29.968 28.16 7.248 40.64L256 360l-37.968 19.2 7.248-40.64-29.968-28.16 41.488-5.76z" fill="#57068c" data-original="#000000"></path></g></svg>