<?xml version="1.0" encoding="iso-8859-1"?>
<!-- Generator: Adobe Illustrator 19.0.0, SVG Export Plug-In . SVG Version: 6.00 Build 0)  -->
<svg version="1.1" id="Capa_1" xmlns="http://www.w3.org/2000/svg" xmlns:xlink="http://www.w3.org/1999/xlink" x="0px" y="0px"
	 viewBox="0 0 511.955 511.955" style="enable-background:new 0 0 511.955 511.955;" xml:space="preserve">
<g>
	<g>
		<g>
			<path d="M511.954,179.013C511.949,81.811,433.147,3.017,335.945,3.022c-63.379,0.003-121.862,34.083-153.111,89.223l27.84,15.776
				c38.953-69.336,126.739-93.966,196.076-55.013c69.336,38.953,93.966,126.74,55.013,196.076
				c-2.199,3.915-4.581,7.725-7.136,11.417l-3.552,5.136l9.04,63.44l-55.088-23.664l-6.528,3.2c-6.689,3.199-13.617,5.874-20.72,8
				l9.168,30.656c6.331-1.915,12.549-4.185,18.624-6.8l94.224,40.448l-15.296-107.504
				C502.491,245.22,512.02,212.458,511.954,179.013z"/>
			<path d="M310.786,256.325c28.083,74.302-9.384,157.301-83.686,185.384c-36.943,13.963-78.002,12.12-113.546-5.096l-6.576-3.2
				l-55.152,23.68l9.056-63.392l-3.552-5.088c-45.066-65.528-28.479-155.182,37.048-200.248
				c24.002-16.507,52.445-25.347,81.576-25.352c10.185,0.017,20.34,1.089,30.304,3.2l6.688-31.28
				c-12.16-2.592-24.558-3.906-36.992-3.92C78.752,131.038-0.025,209.856,0,307.058c0.009,33.421,9.533,66.148,27.458,94.354
				l-15.376,107.52l94.288-40.32c21.958,9.534,45.646,14.436,69.584,14.4c97.273-0.07,176.071-78.982,176.001-176.255
				c-0.015-21.065-3.809-41.956-11.201-61.681L310.786,256.325z"/>
			<path d="M276.978,162.885c-9.607-6.748-19.866-12.516-30.624-17.216l-12.8,29.344c8.795,3.83,17.179,8.542,25.024,14.064
				L276.978,162.885z"/>
			<path d="M303.586,185.829l-23.2,22.064c6.613,6.959,12.51,14.565,17.6,22.704l27.088-17.008
				C318.859,203.64,311.66,194.34,303.586,185.829z"/>
			<rect x="95.954" y="259.013" width="160" height="32"/>
			<rect x="191.954" y="323.013" width="32" height="32"/>
			<rect x="95.954" y="323.013" width="64" height="32"/>
		</g>
	</g>
</g>
<g>
</g>
<g>
</g>
<g>
</g>
<g>
</g>
<g>
</g>
<g>
</g>
<g>
</g>
<g>
</g>
<g>
</g>
<g>
</g>
<g>
</g>
<g>
</g>
<g>
</g>
<g>
</g>
<g>
</g>
</svg>
