<svg xmlns="http://www.w3.org/2000/svg" version="1.1" xmlns:xlink="http://www.w3.org/1999/xlink" xmlns:svgjs="http://svgjs.com/svgjs" width="512" height="512" x="0" y="0" viewBox="0 0 511.955 511.955" style="enable-background:new 0 0 512 512" xml:space="preserve" class=""><g><path d="M511.954 179.013C511.949 81.811 433.147 3.017 335.945 3.022c-63.379.003-121.862 34.083-153.111 89.223l27.84 15.776c38.953-69.336 126.739-93.966 196.076-55.013 69.336 38.953 93.966 126.74 55.013 196.076a143.918 143.918 0 0 1-7.136 11.417l-3.552 5.136 9.04 63.44-55.088-23.664-6.528 3.2a143.194 143.194 0 0 1-20.72 8l9.168 30.656a175.94 175.94 0 0 0 18.624-6.8l94.224 40.448-15.296-107.504a174.837 174.837 0 0 0 27.455-94.4z" fill="#57068c" data-original="#000000" class=""></path><path d="M310.786 256.325c28.083 74.302-9.384 157.301-83.686 185.384a143.826 143.826 0 0 1-113.546-5.096l-6.576-3.2-55.152 23.68 9.056-63.392-3.552-5.088c-45.066-65.528-28.479-155.182 37.048-200.248a144.002 144.002 0 0 1 81.576-25.352 147.393 147.393 0 0 1 30.304 3.2l6.688-31.28a178.405 178.405 0 0 0-36.992-3.92C78.752 131.038-.025 209.856 0 307.058a176.004 176.004 0 0 0 27.458 94.354l-15.376 107.52 94.288-40.32a174.057 174.057 0 0 0 69.584 14.4c97.273-.07 176.071-78.982 176.001-176.255a176.126 176.126 0 0 0-11.201-61.681l-29.968 11.249z" fill="#57068c" data-original="#000000" class=""></path><path d="M276.978 162.885a175.561 175.561 0 0 0-30.624-17.216l-12.8 29.344a141.91 141.91 0 0 1 25.024 14.064l18.4-26.192zM303.586 185.829l-23.2 22.064a143.137 143.137 0 0 1 17.6 22.704l27.088-17.008a175.223 175.223 0 0 0-21.488-27.76zM95.954 259.013h160v32h-160zM191.954 323.013h32v32h-32zM95.954 323.013h64v32h-64z" fill="#57068c" data-original="#000000" class=""></path></g></svg>