<svg xmlns="http://www.w3.org/2000/svg" version="1.1" xmlns:xlink="http://www.w3.org/1999/xlink" xmlns:svgjs="http://svgjs.com/svgjs" width="512" height="512" x="0" y="0" viewBox="0 0 512 512" style="enable-background:new 0 0 512 512" xml:space="preserve" class=""><g><path d="M256 0C114.615 0 0 114.615 0 256s114.615 256 256 256 256-114.615 256-256C511.833 114.685 397.315.167 256 0zm0 480C132.288 480 32 379.712 32 256S132.288 32 256 32s224 100.288 224 224c-.132 123.657-100.343 223.868-224 224z" fill="#57068c" data-original="#000000" class=""></path><path d="M240 64h32v144h-32zM340.677 363.302 276.676 299.3l22.627-22.627 64.001 64zM240 240h32v32h-32zM64 240h32v32H64zM416 240h32v32h-32zM240 416h32v32h-32z" fill="#57068c" data-original="#000000" class=""></path></g></svg>