<?xml version="1.0" encoding="iso-8859-1"?>
<!-- Generator: Adobe Illustrator 19.0.0, SVG Export Plug-In . SVG Version: 6.00 Build 0)  -->
<svg version="1.1" id="Capa_1" xmlns="http://www.w3.org/2000/svg" xmlns:xlink="http://www.w3.org/1999/xlink" x="0px" y="0px"
	 viewBox="0 0 512 512" style="enable-background:new 0 0 512 512;" xml:space="preserve">
<g>
	<g>
		<g>
			<path d="M256,0C114.615,0,0,114.615,0,256s114.615,256,256,256s256-114.615,256-256C511.833,114.685,397.315,0.167,256,0z
				 M256,480C132.288,480,32,379.712,32,256S132.288,32,256,32s224,100.288,224,224C479.868,379.657,379.657,479.868,256,480z"/>
			<rect x="240" y="64" width="32" height="144"/>
			
				<rect x="274.733" y="303.983" transform="matrix(-0.7071 -0.7071 0.7071 -0.7071 319.9941 772.5119)" width="90.512" height="32"/>
			<rect x="240" y="240" width="32" height="32"/>
			<rect x="64" y="240" width="32" height="32"/>
			<rect x="416" y="240" width="32" height="32"/>
			<rect x="240" y="416" width="32" height="32"/>
		</g>
	</g>
</g>
<g>
</g>
<g>
</g>
<g>
</g>
<g>
</g>
<g>
</g>
<g>
</g>
<g>
</g>
<g>
</g>
<g>
</g>
<g>
</g>
<g>
</g>
<g>
</g>
<g>
</g>
<g>
</g>
<g>
</g>
</svg>
