<?xml version="1.0" encoding="UTF-8"?>
<svg xmlns="http://www.w3.org/2000/svg" xmlns:xlink="http://www.w3.org/1999/xlink" xmlns:svgjs="http://svgjs.com/svgjs" version="1.1" width="512" height="512" x="0" y="0" viewBox="0 0 512 512" style="enable-background:new 0 0 512 512" xml:space="preserve">
  <g>
<g xmlns="http://www.w3.org/2000/svg">
	<g>
		<g>
			<rect x="96" y="480" width="288" height="32" fill="#57068c" data-original="#000000"/>
			<path d="M432,352c44.183,0,80-35.817,80-80c0-44.183-35.817-80-80-80h-16v-64H64v224c0.006,23.648,8.786,46.453,24.64,64H0v32     h480v-32h-88.64c15.854-17.547,24.634-40.352,24.64-64H432z M416,224h16c26.51,0,48,21.49,48,48c0,26.51-21.49,48-48,48h-16V224z      M384,192v160c0,35.346-28.654,64-64,64H160c-35.346,0-64-28.654-64-64V224h160v-32H96v-32h288V192z" fill="#57068c" data-original="#000000"/>
			<rect x="128" width="32" height="32" fill="#57068c" data-original="#000000"/>
			<rect x="128" y="64" width="32" height="32" fill="#57068c" data-original="#000000"/>
			<rect x="224" width="32" height="32" fill="#57068c" data-original="#000000"/>
			<rect x="224" y="64" width="32" height="32" fill="#57068c" data-original="#000000"/>
			<rect x="320" width="32" height="32" fill="#57068c" data-original="#000000"/>
			<rect x="320" y="64" width="32" height="32" fill="#57068c" data-original="#000000"/>
			<rect x="288" y="192" width="32" height="32" fill="#57068c" data-original="#000000"/>
		</g>
	</g>
</g>
<g xmlns="http://www.w3.org/2000/svg">
</g>
<g xmlns="http://www.w3.org/2000/svg">
</g>
<g xmlns="http://www.w3.org/2000/svg">
</g>
<g xmlns="http://www.w3.org/2000/svg">
</g>
<g xmlns="http://www.w3.org/2000/svg">
</g>
<g xmlns="http://www.w3.org/2000/svg">
</g>
<g xmlns="http://www.w3.org/2000/svg">
</g>
<g xmlns="http://www.w3.org/2000/svg">
</g>
<g xmlns="http://www.w3.org/2000/svg">
</g>
<g xmlns="http://www.w3.org/2000/svg">
</g>
<g xmlns="http://www.w3.org/2000/svg">
</g>
<g xmlns="http://www.w3.org/2000/svg">
</g>
<g xmlns="http://www.w3.org/2000/svg">
</g>
<g xmlns="http://www.w3.org/2000/svg">
</g>
<g xmlns="http://www.w3.org/2000/svg">
</g>
</g>
</svg>
