<svg id="Capa_1" enable-background="new 0 0 512 512" height="512" viewBox="0 0 512 512" width="512" xmlns="http://www.w3.org/2000/svg"><g><path d="m332 181.007-30-.014-.053 120.007h120.053v-30h-90.04z"/><path d="m440.754 135.413 26.192-37.406-24.575-17.207-26.174 37.381c-25.027-14.85-53.634-24.274-84.197-26.61v-30.571h30v-30h-30-30-30v30h30v30.571c-30.563 2.336-59.17 11.76-84.197 26.61l-26.174-37.381-24.574 17.207 26.192 37.406c-24.412 20.098-43.866 46.007-56.238 75.587h-75.009v30h65.251c-2.31 9.741-3.897 19.76-4.679 30h-122.572v30h122.571c.783 10.24 2.369 20.259 4.679 30h-65.25v30h75.008c29.446 70.403 99.032 120 179.992 120 107.523 0 195-87.477 195-195 0-60.58-27.77-114.794-71.246-150.587zm-123.754 315.587c-63.992 0-119.592-36.618-146.948-90h41.948v-30h-53.762c-2.745-9.67-4.616-19.701-5.549-30h29.311v-30h-29.311c.933-10.299 2.804-20.33 5.549-30h53.762v-30h-41.948c27.356-53.382 82.956-90 146.948-90 90.981 0 165 74.019 165 165s-74.019 165-165 165z"/></g></svg>