<?xml version="1.0" encoding="iso-8859-1"?>
<!-- Generator: Adobe Illustrator 19.0.0, SVG Export Plug-In . SVG Version: 6.00 Build 0)  -->
<svg version="1.1" id="Capa_1" xmlns="http://www.w3.org/2000/svg" xmlns:xlink="http://www.w3.org/1999/xlink" x="0px" y="0px"
	 viewBox="0 0 512.129 512.129" style="enable-background:new 0 0 512.129 512.129;" xml:space="preserve">
<g>
	<g>
		<g>
			<path d="M161.342,350.832l120.688-30.16l229.392-229.36l-90.56-90.56L191.502,230.16L161.342,350.832z M420.862,46l45.312,45.312
				l-22.624,22.576L398.286,68.64L420.862,46z M375.662,91.312l45.2,45.2L273.774,283.6l-45.248-45.264L375.662,91.312z
				 M214.622,269.632l27.92,27.92l-37.232,9.296L214.622,269.632z"/>
			<path d="M256.062,480.112C132.35,479.883,32.248,379.408,32.478,255.697c0.23-123.712,100.704-223.813,224.415-223.584
				c19.906,0.037,39.718,2.727,58.912,7.999l8.512-30.8C188.04-28.345,47.038,51.602,9.38,187.879s42.289,277.28,178.567,314.938
				s277.28-42.289,314.938-178.567c0.138-0.499,0.274-0.998,0.409-1.498l-30.896-8.304
				C445.932,412.161,357.295,480.037,256.062,480.112z"/>
			<path d="M480.062,256.112c0,9.721-0.626,19.431-1.872,29.072l31.744,4.096c1.411-11,2.122-22.078,2.128-33.168v-0.768
				L480.062,256.112z"/>
			<path d="M477.998,225.584l31.728-4.304c-1.545-11.281-3.838-22.447-6.864-33.424l-30.848,8.512
				C474.664,205.961,476.663,215.722,477.998,225.584z"/>
		</g>
	</g>
</g>
<g>
</g>
<g>
</g>
<g>
</g>
<g>
</g>
<g>
</g>
<g>
</g>
<g>
</g>
<g>
</g>
<g>
</g>
<g>
</g>
<g>
</g>
<g>
</g>
<g>
</g>
<g>
</g>
<g>
</g>
</svg>
