<svg height="512" viewBox="0 0 512 512" width="512" xmlns="http://www.w3.org/2000/svg"><g id="_21_Globe" data-name="21 Globe"><g id="Glyph"><path d="m208 112h16v16h-16z"/><path d="m176 112h16v16h-16z"/><path d="m208 144h16v16h-16z"/><path d="m240 202.584-42.722-17.089-16.997-25.495h-52.281v53.766l28.454 9.485 25.124 16.749h58.422z"/><path d="m240 288v38.034l31.809 9.089 12.877 12.877h35.314v-44l-21.333-16z"/><path d="m448 224c0-112.011-89-203.611-200-207.831v-16.169h-16v48.19c-93.348 4.197-168 81.445-168 175.81s74.652 171.613 168 175.81v48.19h-40a40.045 40.045 0 0 0 -40 40v8h-24v16h224v-16h-24v-8a40.045 40.045 0 0 0 -40-40h-40v-16.169c111-4.22 200-95.82 200-207.831zm-200-191.821c102.172 4.21 184 88.633 184 191.821s-81.828 187.611-184 191.821v-16.011c88.012-3.957 159.393-72.856 167.267-159.81h-47.267v-16h48c0-5.394-.256-10.729-.733-16h-95.267v-16h93.072q-1.5-8.136-3.735-16h-57.337v-16h51.945c-24.733-63.132-84.923-108.617-155.945-111.81zm104 191.821v16h-16v-16zm-112 160a159.165 159.165 0 0 1 -95.894-32h68.175l11.719-17.578v-30.422h-51.056l-16-32h-69.585a159.449 159.449 0 0 1 -7.359-48c0-88.225 71.776-160 160-160a159.031 159.031 0 0 1 72.909 17.6l-13.439 22.4h-43.47v44.944l32 16v7.426l-32 28v39.26l36.994 32.37h43.006l24 32h18.522a160.1 160.1 0 0 1 -138.522 80z"/></g></g></svg>