<svg xmlns="http://www.w3.org/2000/svg" version="1.1" xmlns:xlink="http://www.w3.org/1999/xlink" xmlns:svgjs="http://svgjs.com/svgjs" width="512" height="512" x="0" y="0" viewBox="0 0 492.432 492.432" style="enable-background:new 0 0 512 512" xml:space="preserve" class=""><g><path d="m355.365 198.423-22.628 22.627-22.627-22.627 22.627-22.628z" fill="#57068c" data-original="#000000" class=""></path><path d="M490.832 353.904a47.665 47.665 0 0 0-14.048-33.92l-29.28-29.296 8.48-8.48 11.36-79.184 18.8-18.8L463.52 161.6l-26.336 26.336-11.36 79.184-.944.944-46.944-46.96-22.624 22.624 98.848 98.88c6.246 6.248 6.246 16.376 0 22.624a16.352 16.352 0 0 1-21.328 1.152l-125.744-125.6-22.656 22.64L408.88 387.856c.72.72 1.456 1.408 2.208 2.08l21.104 21.072a15.024 15.024 0 0 1 4.432 10.72 15.6 15.6 0 0 1-5.008 11.28c-6.325 6.171-16.398 6.234-22.8.144l-20.128-20.144a38.371 38.371 0 0 0-1.76-1.856l-125.104-125.12-22.64 22.624L365.28 434.832a14.913 14.913 0 0 1 3.44 9.6 15.568 15.568 0 0 1-4.96 11.2c-6.32 6.144-16.363 6.2-22.752.128l-43.872-43.888-.736-.768-2.288-2.272-22.592 22.672 2.688 2.704a14.913 14.913 0 0 1 4 10.224 15.505 15.505 0 0 1-4.992 11.2c-6.317 6.127-16.343 6.176-22.72.112l-7.664-7.68 2.992-2.976c18.747-18.214 19.179-48.178.965-66.925a47.328 47.328 0 0 0-32.405-14.323 46.735 46.735 0 0 0-27.696-41.376c16.876-20.237 14.152-50.324-6.085-67.2-17.698-14.759-43.416-14.759-61.115 0a47.669 47.669 0 0 0-9.504-13.84 49.247 49.247 0 0 0-53.168-9.68l-6.272-43.776-26.384-26.4-22.56 22.64 18.832 18.864 7.536 52.56-11.072 11.072c-18.777 18.537-18.972 48.787-.435 67.564a47.776 47.776 0 0 0 31.875 14.164 47.634 47.634 0 0 0 13.808 31.472A47.713 47.713 0 0 0 93.6 393.68a47.748 47.748 0 0 0 13.776 31.456 47.66 47.66 0 0 0 31.456 13.792c1.302 26.38 23.742 46.711 50.123 45.409a47.82 47.82 0 0 0 31.173-13.665l7.712 7.712c19.189 18.576 49.748 18.27 68.56-.688a47.083 47.083 0 0 0 8.896-12.352l13.056 13.04a47.613 47.613 0 0 0 33.92 14.048 48.419 48.419 0 0 0 34.688-14.752 47.171 47.171 0 0 0 9.6-13.984c19.161 10.438 42.92 6.913 58.224-8.64 15.157-15.177 18.18-38.664 7.36-57.184a48.382 48.382 0 0 0 14.576-10.016 47.746 47.746 0 0 0 14.112-33.952zM39.52 311.984c-6.246-6.248-6.246-16.376 0-22.624l25.296-25.28c6.049-6.442 16.175-6.76 22.616-.711 6.442 6.049 6.76 16.175.711 22.616a16.25 16.25 0 0 1-.719.719l-25.28 25.28c-6.248 6.246-16.376 6.246-22.624 0zm45.248 45.264c-6.252-6.245-6.258-16.376-.013-22.627l.013-.013 25.264-25.264 28.24-28.208c6.322-6.049 16.286-6.049 22.608 0 6.246 6.248 6.246 16.376 0 22.624l-28.208 28.208-25.28 25.28c-6.248 6.246-16.376 6.246-22.624 0zm67.888 45.264c-6.249 6.247-16.38 6.246-22.627-.003l-.013-.013c-6.246-6.248-6.246-16.376 0-22.624l25.28-25.28c6.252-6.252 16.388-6.252 22.64 0 6.252 6.252 6.252 16.388 0 22.64l-25.28 25.28zm71.247 19.233a16.25 16.25 0 0 1-.719.719l-25.28 25.28c-6.139 6.356-16.268 6.532-22.624.393s-6.532-16.268-.393-22.624c.129-.133.26-.264.393-.393l25.296-25.28c6.049-6.442 16.175-6.76 22.616-.711 6.442 6.049 6.76 16.175.711 22.616z" fill="#57068c" data-original="#000000" class=""></path><path d="M120.384 122.48c-.008 30.857 25 55.878 55.857 55.887a55.842 55.842 0 0 0 18.783-3.247l67.632-24 24.784 24.784 22.592-22.672-39.024-39.12-86.736 30.864c-11.752 3.992-24.622-1.531-29.824-12.8-5.365-12.072.072-26.208 12.144-31.573a23.5 23.5 0 0 1 1.024-.427l105.008-40.832 52.08-31.136L308.176.8 259.76 30.032l-52.464 20.4L156.864 0 134.24 22.624l40.48 40.48-18.704 7.264c-21.552 8.279-35.738 29.025-35.632 52.112z" fill="#57068c" data-original="#000000" class=""></path></g></svg>