<?xml version="1.0" encoding="iso-8859-1"?>
<!-- Generator: Adobe Illustrator 19.0.0, SVG Export Plug-In . SVG Version: 6.00 Build 0)  -->
<svg version="1.1" id="Capa_1" xmlns="http://www.w3.org/2000/svg" xmlns:xlink="http://www.w3.org/1999/xlink" x="0px" y="0px"
	 viewBox="0 0 492.432 492.432" style="enable-background:new 0 0 492.432 492.432;" xml:space="preserve">
<g>
	<g>
		<g>
			<rect x="316.733" y="182.424" transform="matrix(-0.7071 0.7071 -0.7071 -0.7071 708.3186 103.4527)" width="32" height="32"/>
			<path d="M490.832,353.904c0.034-12.729-5.024-24.943-14.048-33.92l-29.28-29.296l8.48-8.48l11.36-79.184l18.8-18.8L463.52,161.6
				l-26.336,26.336l-11.36,79.184l-0.944,0.944l-46.944-46.96l-22.624,22.624l98.848,98.88c6.246,6.248,6.246,16.376,0,22.624
				c-5.842,5.615-14.915,6.106-21.328,1.152l-125.744-125.6l-22.656,22.64L408.88,387.856c0.72,0.72,1.456,1.408,2.208,2.08
				l21.104,21.072c2.853,2.836,4.449,6.697,4.432,10.72c-0.048,4.289-1.859,8.368-5.008,11.28c-6.325,6.171-16.398,6.234-22.8,0.144
				l-20.128-20.144c-0.56-0.64-1.152-1.248-1.76-1.856l-125.104-125.12l-22.64,22.624L365.28,434.832
				c2.239,2.696,3.457,6.095,3.44,9.6c-0.053,4.254-1.846,8.301-4.96,11.2c-6.32,6.144-16.363,6.2-22.752,0.128l-43.872-43.888
				l-0.736-0.768l-2.288-2.272l-22.592,22.672l2.688,2.704c2.585,2.775,4.015,6.431,4,10.224c-0.054,4.261-1.86,8.311-4.992,11.2
				c-6.317,6.127-16.343,6.176-22.72,0.112l-7.664-7.68l2.992-2.976c18.747-18.214,19.179-48.178,0.965-66.925
				c-8.54-8.79-20.156-13.924-32.405-14.323c-0.505-17.971-11.274-34.059-27.696-41.376c16.876-20.237,14.152-50.324-6.085-67.2
				c-17.698-14.759-43.416-14.759-61.115,0c-2.324-5.139-5.542-9.825-9.504-13.84c-14.211-13.531-35.1-17.334-53.168-9.68
				l-6.272-43.776l-26.384-26.4L1.6,184.208l18.832,18.864l7.536,52.56l-11.072,11.072c-18.777,18.537-18.972,48.787-0.435,67.564
				c8.46,8.57,19.844,13.628,31.875,14.164c0.526,11.843,5.449,23.065,13.808,31.472c8.412,8.337,19.624,13.247,31.456,13.776
				c0.532,11.831,5.442,23.042,13.776,31.456c8.407,8.347,19.621,13.264,31.456,13.792c1.302,26.38,23.742,46.711,50.123,45.409
				c11.715-0.578,22.81-5.441,31.173-13.665l7.712,7.712c19.189,18.576,49.748,18.27,68.56-0.688
				c3.616-3.608,6.62-7.779,8.896-12.352l13.056,13.04c8.974,9.029,21.19,14.088,33.92,14.048
				c13.081-0.03,25.593-5.351,34.688-14.752c4.019-4.043,7.271-8.781,9.6-13.984c19.161,10.438,42.92,6.913,58.224-8.64
				c15.157-15.177,18.18-38.664,7.36-57.184c5.433-2.415,10.374-5.81,14.576-10.016
				C485.768,378.876,490.849,366.651,490.832,353.904z M39.52,311.984c-6.246-6.248-6.246-16.376,0-22.624l25.296-25.28
				c6.049-6.442,16.175-6.76,22.616-0.711c6.442,6.049,6.76,16.175,0.711,22.616c-0.232,0.247-0.472,0.487-0.719,0.719l-25.28,25.28
				C55.896,318.23,45.768,318.23,39.52,311.984z M84.768,357.248c-6.252-6.245-6.258-16.376-0.013-22.627
				c0.004-0.004,0.008-0.008,0.013-0.013l25.264-25.264l28.24-28.208c6.322-6.049,16.286-6.049,22.608,0
				c6.246,6.248,6.246,16.376,0,22.624l-28.208,28.208l-25.28,25.28C101.144,363.494,91.016,363.494,84.768,357.248z
				 M152.656,402.512c-6.249,6.247-16.38,6.246-22.627-0.003c-0.004-0.004-0.008-0.008-0.013-0.013v0
				c-6.246-6.248-6.246-16.376,0-22.624l25.28-25.28c6.252-6.252,16.388-6.252,22.64,0c6.252,6.252,6.252,16.388,0,22.64
				L152.656,402.512z M223.903,421.745c-0.232,0.247-0.472,0.487-0.719,0.719l-25.28,25.28c-6.139,6.356-16.268,6.532-22.624,0.393
				s-6.532-16.268-0.393-22.624c0.129-0.133,0.26-0.264,0.393-0.393l25.296-25.28c6.049-6.442,16.175-6.76,22.616-0.711
				C229.634,405.178,229.952,415.304,223.903,421.745z"/>
			<path d="M120.384,122.48c-0.008,30.857,25,55.878,55.857,55.887c6.401,0.002,12.754-1.096,18.783-3.247l67.632-24l24.784,24.784
				l22.592-22.672l-39.024-39.12l-86.736,30.864c-11.752,3.992-24.622-1.531-29.824-12.8c-5.365-12.072,0.072-26.208,12.144-31.573
				c0.338-0.15,0.679-0.293,1.024-0.427l105.008-40.832l52.08-31.136L308.176,0.8L259.76,30.032l-52.464,20.4L156.864,0
				L134.24,22.624l40.48,40.48l-18.704,7.264C134.464,78.647,120.278,99.393,120.384,122.48z"/>
		</g>
	</g>
</g>
<g>
</g>
<g>
</g>
<g>
</g>
<g>
</g>
<g>
</g>
<g>
</g>
<g>
</g>
<g>
</g>
<g>
</g>
<g>
</g>
<g>
</g>
<g>
</g>
<g>
</g>
<g>
</g>
<g>
</g>
</svg>
