<?xml version="1.0" encoding="UTF-8"?>
<svg xmlns="http://www.w3.org/2000/svg" xmlns:xlink="http://www.w3.org/1999/xlink" xmlns:svgjs="http://svgjs.com/svgjs" version="1.1" width="512" height="512" x="0" y="0" viewBox="0 0 512 512" style="enable-background:new 0 0 512 512" xml:space="preserve" class="">
  <g>
    <g xmlns="http://www.w3.org/2000/svg" id="_07_Bulb" data-name="07 Bulb">
      <path d="m288 200h16v16h-16z" fill="#57068c" data-original="#000000"/>
      <path d="m208 200h16v16h-16z" fill="#57068c" data-original="#000000"/>
      <path d="m248 320h16v16h-16z" fill="#57068c" data-original="#000000"/>
      <path d="m257.984 48.012c-140.444-1.737-215.034 167.309-118.384 269.754 23.476 24.886 36.405 56.9 36.405 90.16v48.074a24.037 24.037 0 0 0 16.6 22.825 40.055 40.055 0 0 0 39.395 33.175h48a40.057 40.057 0 0 0 39.4-33.175 24.037 24.037 0 0 0 16.6-22.825v-46.822a132.479 132.479 0 0 1 36.324-91.326c95.443-101.023 24.481-268.152-114.34-269.84zm22.016 447.988h-48a24.042 24.042 0 0 1 -22.629-16h93.258a24.042 24.042 0 0 1 -22.629 16zm40-40a8.009 8.009 0 0 1 -8 8h-112a8.009 8.009 0 0 1 -8-8v-8h128zm0-24h-128v-16h128zm40.694-125.136a148.349 148.349 0 0 0 -40.405 93.136h-56.289v-48h-16v48h-56.226c-1.9-34.483-16.117-67.323-40.541-93.213-86.359-91.541-20.684-242.787 104.708-242.787.613 0 1.234 0 1.849.011 125.283 1.524 188.503 152.25 102.904 242.853z" fill="#57068c" data-original="#000000"/>
      <path d="m248 0h16v16h-16z" fill="#57068c" data-original="#000000"/>
      <path d="m356.104 30.998h16v16h-16z" transform="matrix(.53 -.848 .848 .53 138.094 327.116)" fill="#57068c" data-original="#000000"/>
      <path d="m431.354 114.572h16v16h-16z" transform="matrix(.899 -.438 .438 .899 -9.268 204.997)" fill="#57068c" data-original="#000000"/>
      <path d="m450.883 225.324h16v16h-16z" transform="matrix(.104 -.995 .995 .104 178.885 665.313)" fill="#57068c" data-original="#000000"/>
      <path d="m408.754 329.595h16v16h-16z" transform="matrix(.616 -.788 .788 .616 -105.855 458.152)" fill="#57068c" data-original="#000000"/>
      <path d="m106.29 350.746h16v15.999h-16z" transform="matrix(.695 -.719 .719 .695 -223.16 191.748)" fill="#57068c" data-original="#000000"/>
      <path d="m50.06 253.352h16v16h-16z" transform="matrix(.97 -.242 .242 .97 -61.508 21.812)" fill="#57068c" data-original="#000000"/>
      <path d="m53.984 140.96h16v16h-16z" transform="matrix(.309 -.951 .951 .309 -98.84 161.879)" fill="#57068c" data-original="#000000"/>
      <path d="m116.871 47.727h16v16h-16z" transform="matrix(.766 -.643 .643 .766 -6.606 93.303)" fill="#57068c" data-original="#000000"/>
      <path d="m335.67 134.062c-6.627-41.005-56.624-51.773-79.67-17.81-23.047-33.964-73.043-23.194-79.67 17.809-32.128 10.356-42.477 54.608-18.374 77.872-25.495 29.572-.615 72.609 37.6 75.877 16.17 22.266 46.082 21.279 60.449 2.711 14.357 18.555 44.271 19.566 60.449-2.711 38.067-3.256 63.188-46.192 37.595-75.877 24.085-23.249 13.759-67.513-18.379-77.871zm-87.67 131.938c0 23.685-27.426 30.388-40 11.7v-5.7a16.419 16.419 0 0 1 16-16v-16c-17.052 0-31.493 14.165-31.977 31.124-14.289-3.182-26.642-15.431-28.285-29.124h.262c0-16.038 10.729-26 28-26v-16a49.962 49.962 0 0 0 -19.007 3.57c-19.1-12.761-14.485-43.437 4.571-52.81 4.955 15.992 21.536 25.24 46.436 25.24v-16c-14.6 0-32-3.47-32-20h-.238c.937-15.761 12.7-28 27.081-28 15.532 0 29.157 14.019 29.157 30zm91.007-62.43a49.962 49.962 0 0 0 -19.007-3.57v16c17.271 0 28 9.962 28 26h.262c-1.651 13.761-14.05 25.954-28.285 29.124-.484-16.959-14.925-31.124-31.977-31.124v16a16.419 16.419 0 0 1 16 16v5.7c-12.577 18.693-40 11.981-40-11.7v-124c0-15.981 13.625-30 29.157-30 14.384 0 26.144 12.239 27.081 28h-.238c0 16.53-17.4 20-32 20v16c24.9 0 41.481-9.248 46.436-25.24 18.87 9.282 23.83 39.945 4.571 52.81z" fill="#57068c" data-original="#000000"/>
    </g>
  </g>
</svg>
