<svg height="512" viewBox="0 0 512 512" width="512" xmlns="http://www.w3.org/2000/svg"><g id="_07_Bulb" data-name="07 Bulb"><g id="Glyph"><path d="m248 0h16v16h-16z"/><path d="m356.104 30.998h16v16h-16z" transform="matrix(.53 -.848 .848 .53 138.094 327.116)"/><path d="m431.354 114.572h16v16h-16z" transform="matrix(.899 -.438 .438 .899 -9.268 204.997)"/><path d="m450.883 225.324h16v16h-16z" transform="matrix(.104 -.995 .995 .104 178.885 665.313)"/><path d="m408.754 329.595h16v16h-16z" transform="matrix(.616 -.788 .788 .616 -105.855 458.152)"/><path d="m106.29 350.746h16v15.999h-16z" transform="matrix(.695 -.719 .719 .695 -223.16 191.748)"/><path d="m50.06 253.352h16v16h-16z" transform="matrix(.97 -.242 .242 .97 -61.508 21.812)"/><path d="m53.984 140.96h16v16h-16z" transform="matrix(.309 -.951 .951 .309 -98.84 161.879)"/><path d="m116.871 47.727h16v16h-16z" transform="matrix(.766 -.643 .643 .766 -6.606 93.303)"/><path d="m218.843 112c-14.384 0-26.144 12.239-27.081 28h.238c0 16.53 17.4 20 32 20v16c-24.9 0-41.481-9.248-46.436-25.24-19.056 9.373-23.676 40.049-4.571 52.81a49.962 49.962 0 0 1 19.007-3.57v16c-17.271 0-28 9.962-28 26h-.262c1.643 13.693 14 25.942 28.285 29.124.484-16.959 14.925-31.124 31.977-31.124v16a16.419 16.419 0 0 0 -16 16v5.7c12.574 18.689 40 11.986 40-11.7v-124c0-15.981-13.625-30-29.157-30zm5.157 104h-16v-16h16z"/><path d="m257.984 48.012c-140.444-1.737-215.034 167.309-118.384 269.754 23.476 24.886 36.405 56.9 36.405 90.16v48.074a24.037 24.037 0 0 0 16.6 22.825 40.055 40.055 0 0 0 39.395 33.175h48a40.057 40.057 0 0 0 39.4-33.175 24.037 24.037 0 0 0 16.6-22.825v-46.822a132.479 132.479 0 0 1 36.324-91.326c95.443-101.023 24.481-268.152-114.34-269.84zm22.016 447.988h-48a24.042 24.042 0 0 1 -22.629-16h93.258a24.042 24.042 0 0 1 -22.629 16zm40-40a8.009 8.009 0 0 1 -8 8h-112a8.009 8.009 0 0 1 -8-8v-8h128zm0-24h-128v-16h56v-64h16v64h56zm-72-96v-16h16v16zm68.449-48.19c-16.178 22.277-46.092 21.266-60.449 2.711-14.367 18.568-44.279 19.555-60.449-2.711-38.21-3.268-63.09-46.305-37.595-75.877-24.1-23.264-13.754-67.516 18.374-77.872 6.627-41 56.623-51.773 79.67-17.809 23.046-33.963 73.043-23.195 79.67 17.81 32.138 10.358 42.464 54.622 18.374 77.871 25.593 29.685.472 72.621-37.595 75.877z"/><path d="m334.436 150.76c-4.955 15.992-21.536 25.24-46.436 25.24v-16c14.6 0 32-3.47 32-20h.238c-.937-15.761-12.7-28-27.081-28-15.532 0-29.157 14.019-29.157 30v124c0 23.68 27.423 30.392 40 11.7v-5.7a16.419 16.419 0 0 0 -16-16v-16c17.052 0 31.493 14.165 31.977 31.124 14.235-3.17 26.634-15.363 28.285-29.124h-.262c0-16.038-10.729-26-28-26v-16a49.962 49.962 0 0 1 19.007 3.57c19.259-12.865 14.299-43.528-4.571-52.81zm-30.436 65.24h-16v-16h16z"/></g></g></svg>