<svg xmlns="http://www.w3.org/2000/svg" version="1.1" xmlns:xlink="http://www.w3.org/1999/xlink" xmlns:svgjs="http://svgjs.com/svgjs" width="512" height="512" x="0" y="0" viewBox="0 0 512.139 512.139" style="enable-background:new 0 0 512 512" xml:space="preserve" class=""><g><path d="M337.541 13.345a255.986 255.986 0 0 0-81.33-13.31 254.956 254.956 0 0 0-140.432 41.92l17.6 26.752c103.338-67.594 241.907-38.618 309.501 64.72s38.618 241.907-64.72 309.501-241.907 38.618-309.501-64.72a223.584 223.584 0 0 1-24.88-193.453l-30.4-10.192c-44.996 134.034 27.184 279.166 161.218 324.162s279.166-27.184 324.162-161.218S471.575 58.341 337.541 13.345z" fill="#57068c" data-original="#000000" class=""></path><path d="m70.1 131.347-26.56-17.84a255.307 255.307 0 0 0-17.088 29.52l28.704 14.144A222.646 222.646 0 0 1 70.1 131.347zM109.572 86.691 88.58 62.531a263.204 263.204 0 0 0-24.192 24l24 21.184a230.582 230.582 0 0 1 21.184-21.024zM240.212 160.035h32v256h-32zM240.212 96.035h32v32h-32z" fill="#57068c" data-original="#000000" class=""></path></g></svg>