<svg xmlns="http://www.w3.org/2000/svg" version="1.1" xmlns:xlink="http://www.w3.org/1999/xlink" xmlns:svgjs="http://svgjs.com/svgjs" width="512" height="512" x="0" y="0" viewBox="0 0 512 512" style="enable-background:new 0 0 512 512" xml:space="preserve"><g><path d="m498.343 406.725-23.882 23.882-31.343-31.342 17.8-17.8c7.476-7.477-3.821-18.8-11.314-11.315l-9.788 9.789C271.505 212.83 274.7 208.914 266.093 217.522l-11.314 11.315c-28.49-27.421-28.144-30.626-33.941-30.626-5.053 0-6.781 4.055-11.313 8l-84.853-84.853c-7.48-7.477-18.8 3.826-11.314 11.315l84.853 84.852c-3.945 4.533-8 6.261-8 11.314 0 5.8 3.2 5.449 30.627 33.94l-11.315 11.314a8 8 0 0 0 0 11.314l16.25 16.25c7.479 7.476 18.8-3.823 11.314-11.314l-10.593-10.593 45.256-45.257 16.972 16.972-11.315 11.314a8.01 8.01 0 0 0 5.657 13.658c5.46 0 6.652-4.215 16.972-13.658l11.313 11.314-22.628 22.628c-7.48 7.479 3.822 18.8 11.313 11.314l22.629-22.629 11.313 11.314-11.314 11.314a8.009 8.009 0 0 0 5.657 13.657c5.46 0 6.652-4.214 16.971-13.657l11.31 11.313-22.628 22.629a8.009 8.009 0 0 0 5.656 13.657c5.793 0 6.069-3.827 28.286-24.972l11.313 11.314-11.314 11.314a8.009 8.009 0 0 0 5.657 13.657c5.462 0 6.658-4.219 16.971-13.657l37.961 37.96-45.252 45.256-57.593-57.592c-7.479-7.476-18.8 3.823-11.314 11.315l57.593 57.591c-.048.1-7.9 6.465-1.524 12.838a8 8 0 0 0 11.314 0l16.138-16.138 31.342 31.343-21.373 21.372c-7.494 7.5 3.9 18.722 11.314 11.315l90.51-90.51c7.475-7.477-3.822-18.804-11.314-11.314Zm-266.192-155.26-22.626-22.626 11.313-11.315 22.627 22.627ZM440.52 464.548l-31.343-31.343 22.623-22.626 31.343 31.342ZM85.607 152.148c1.968-12.594 7.258-17.751 7.648-18.115a8 8 0 0 0-3.988-13.917C77.472 118.2 0 153 0 232c0 27.454 24.982 52.231 61.036 47.338 10.459-1.421 8.367-17.259-2.152-15.856C32.7 267.043 16 250 16 232c0-38.926 20.548-68.7 54.853-87.653-6.443 26.684 3.771 57.882 15.524 82.653 3.208 10.071 18.433 5.249 15.252-4.834-1.321-4.193-20.678-40.229-16.022-70.018ZM28.682-.087C5.974 5.044-3.283 29.954 4.958 47.892c5.28 11.495 17.285 19.142 27.067 20.385 48.6 6.145 57.99 24.334 58.719 25.926a7.7 7.7 0 0 0 7.628 5.722c.14 0 .282 0 .424-.011a8.168 8.168 0 0 0 7.465-7.088c.087-.6 2.071-14.874-3.085-32.877C93.841 27.36 58.589-6.845 28.682-.087Zm-9.182 41.3c-2.446-5.325-1.986-11.373 1.33-17.492C33.646.07 80.974 28.52 89.325 70.29 55.554 47.468 28.288 60.346 19.5 41.213ZM130.425 41.568c12.565 31.992 7.653 44.656 4.429 47.158-8.61 2.595-6 16.521 4.418 15.212C206.359 95.511 221.849 2.8 167.158 0c-29.433-1.523-44.052 22.876-36.733 41.568Zm54.2-5.882c-1.411 27.533-17.527 40.8-30.582 47.053 1.4-10.14-.13-25.007-8.567-46.621-6.737-25.472 40.572-28.231 39.147-.432Z" fill="#57068c" data-original="#000000"></path><path d="M280 380.687V368c2.168-.485 16 2.7 16-8v-32a8 8 0 0 0-8-8h-96a8 8 0 0 0-8 8v32c0 10.806 13.641 7.472 16 8v12.687c-20.238 21.242-24 21.584-24 27.313v80a24.027 24.027 0 0 0 24 24h80a24.027 24.027 0 0 0 24-24v-80c0-5.735-3.888-6.2-24-27.313ZM200 336h80v16h-80Zm88 88h-24c-10.576 0-10.592 16 0 16h24v48a8.009 8.009 0 0 1-8 8h-80a8.009 8.009 0 0 1-8-8v-48c2.168-.485 16 2.7 16-8 0-10.806-13.641-7.472-16-8v-12.687c20.238-21.242 24-21.584 24-27.313v-16h48c.585 13.988-1.491 17.822 2.343 21.657L288 411.313ZM80 256a8 8 0 0 0 16 0c0-10.577-16-10.592-16 0Z" fill="#57068c" data-original="#000000"></path><circle cx="232" cy="432" r="8" fill="#57068c" data-original="#000000"></circle></g></svg>