<?xml version="1.0" encoding="iso-8859-1"?>
<!-- Generator: Adobe Illustrator 19.0.0, SVG Export Plug-In . SVG Version: 6.00 Build 0)  -->
<svg version="1.1" id="Capa_1" xmlns="http://www.w3.org/2000/svg" xmlns:xlink="http://www.w3.org/1999/xlink" x="0px" y="0px"
	 viewBox="0 0 512 512" style="enable-background:new 0 0 512 512;" xml:space="preserve">
<g>
	<g>
		<g>
			<polygon points="32,0 0,0 0,512 512,512 512,480 32,480 			"/>
			<path d="M155.296,260.4C172.448,172.896,193.792,64,240,64c11.767,0.799,22.488,7.041,28.992,16.88
				c-23.44,43.072-36.432,108.8-49.104,173.36c-10.8,55.12-23.648,120.4-41.68,148.128h-0.08
				c-5.536,8.464-11.536,13.536-18.144,13.536v32c17.158-0.424,32.937-9.497,41.936-24.112l129.6-129.52
				c2.848,14,5.744,27.504,8.8,40.352L244.672,430.4l22.656,22.64l82.544-82.624c14.4,46.4,33.6,77.632,66.128,77.632V416
				c-28.176,0-45.76-89.6-59.888-161.76c-12.672-64.592-25.6-130.288-49.104-173.36C313.512,71.041,324.233,64.799,336,64
				c5.984,0,24.192,0,43.296,40.384l28.912-13.68C389.792,51.744,365.504,32,336,32c-18.398,0.107-35.87,8.086-48,21.92
				C275.87,40.086,258.398,32.107,240,32c-72.544,0-94.688,112.992-116.112,222.24C109.76,326.4,92.176,416,64,416v32
				C118.512,448,135.568,361.056,155.296,260.4z M323.952,256.624l-91.504,91.488c5.04-19.472,9.6-40.896,14.016-63.312
				l69.216-69.216C318.592,229.424,321.328,243.2,323.952,256.624z M288,115.392c7.941,20.6,14.415,41.735,19.376,63.248
				L257.6,228.352C264.49,189.9,274.66,152.108,288,115.392z"/>
			<path d="M399.28,162.176l30.928-8.256c-3.2-11.68-6.208-22.064-9.472-31.712l-30.4,10.224
				C393.6,141.824,396.512,151.792,399.28,162.176z"/>
			<path d="M413.424,223.76l31.344-6.4c-2.176-10.688-4.432-21.296-6.784-31.696l-31.216,7.056
				C409.072,202.912,411.28,213.296,413.424,223.76z"/>
			<path d="M452.112,254.224l-1.04-5.264l-31.408,6.144l1.04,5.28C440.432,361.056,457.488,448,512,448v-32
				C483.824,416,466.24,326.304,452.112,254.224z"/>
		</g>
	</g>
</g>
<g>
</g>
<g>
</g>
<g>
</g>
<g>
</g>
<g>
</g>
<g>
</g>
<g>
</g>
<g>
</g>
<g>
</g>
<g>
</g>
<g>
</g>
<g>
</g>
<g>
</g>
<g>
</g>
<g>
</g>
</svg>
