<svg xmlns="http://www.w3.org/2000/svg" version="1.1" xmlns:xlink="http://www.w3.org/1999/xlink" xmlns:svgjs="http://svgjs.com/svgjs" width="512" height="512" x="0" y="0" viewBox="0 0 512 512" style="enable-background:new 0 0 512 512" xml:space="preserve" class=""><g><path d="m336 47.68-160-32L0 50.88v448.64l176-35.2 160 32 176-35.2v-61.28h-32v35.04l-144 28.8-160-32-144 28.8V77.12l144-28.8 160 32 144-28.8v188.32h32V12.48z" fill="#57068c" data-original="#000000" class=""></path><path d="M480 335.84h32v32h-32zM480 271.84h32v32h-32zM336 384v-32h-80v-96H128v32h96v96zM400 384v-66.272c34.224-8.837 54.804-43.744 45.968-77.968-8.837-34.224-43.744-54.804-77.968-45.968-34.224 8.837-54.804 43.744-45.968 77.968A64.001 64.001 0 0 0 368 317.728V384h32zm-48-128c0-17.673 14.327-32 32-32 17.673 0 32 14.327 32 32s-14.327 32-32 32c-17.673 0-32-14.327-32-32z" fill="#57068c" data-original="#000000" class=""></path><path d="M208 96H64v192h32v-80h112V96zm-32 80H96v-48h80v48z" fill="#57068c" data-original="#000000" class=""></path></g></svg>