<?xml version="1.0" encoding="iso-8859-1"?>
<!-- Generator: Adobe Illustrator 19.0.0, SVG Export Plug-In . SVG Version: 6.00 Build 0)  -->
<svg version="1.1" id="Capa_1" xmlns="http://www.w3.org/2000/svg" xmlns:xlink="http://www.w3.org/1999/xlink" x="0px" y="0px"
	 viewBox="0 0 512 512" style="enable-background:new 0 0 512 512;" xml:space="preserve">
<g>
	<g>
		<g>
			<polygon points="336,47.68 176,15.68 0,50.88 0,499.52 176,464.32 336,496.32 512,461.12 512,399.84 480,399.84 480,434.88 
				336,463.68 176,431.68 32,460.48 32,77.12 176,48.32 336,80.32 480,51.52 480,239.84 512,239.84 512,12.48 			"/>
			<rect x="480" y="335.84" width="32" height="32"/>
			<rect x="480" y="271.84" width="32" height="32"/>
			<polygon points="336,384 336,352 256,352 256,256 128,256 128,288 224,288 224,384 			"/>
			<path d="M400,384v-66.272c34.224-8.837,54.804-43.744,45.968-77.968c-8.837-34.224-43.744-54.804-77.968-45.968
				c-34.224,8.837-54.804,43.744-45.968,77.968c5.821,22.543,23.424,40.147,45.968,45.968V384H400z M352,256
				c0-17.673,14.327-32,32-32c17.673,0,32,14.327,32,32s-14.327,32-32,32C366.327,288,352,273.673,352,256z"/>
			<path d="M208,96H64v192h32v-80h112V96z M176,176H96v-48h80V176z"/>
		</g>
	</g>
</g>
<g>
</g>
<g>
</g>
<g>
</g>
<g>
</g>
<g>
</g>
<g>
</g>
<g>
</g>
<g>
</g>
<g>
</g>
<g>
</g>
<g>
</g>
<g>
</g>
<g>
</g>
<g>
</g>
<g>
</g>
</svg>
