<svg xmlns="http://www.w3.org/2000/svg" version="1.1" xmlns:xlink="http://www.w3.org/1999/xlink" xmlns:svgjs="http://svgjs.com/svgjs" width="512" height="512" x="0" y="0" viewBox="0 0 512.001 512.001" style="enable-background:new 0 0 512 512" xml:space="preserve" class=""><g><path d="M430.049 248.336c-2.912-5.344-6.656-12.144-11.2-19.552A32.56 32.56 0 0 1 446.273 208c17.647-.954 32.727 12.578 33.681 30.225.032.591.047 1.183.047 1.775h32a64.353 64.353 0 0 0-19.968-46.4c-24.813-24.031-64.408-23.397-88.439 1.415a62.662 62.662 0 0 0-4.969 5.801A103.76 103.76 0 0 0 320.001 160c-42.661-1.553-82.683 20.613-104 57.6l21.12-105.6h53.552c25.023-.026 45.302-20.305 45.328-45.328C335.966 29.865 306.136.036 269.329 0h-85.44L13.009 233.008c-16.955 23.144-17.373 54.493-1.04 78.08a348.094 348.094 0 0 0 225.76 136.752c104.224 14.832 163.2-11.744 194.272-28.208V512h32V384h-33.328l-6.88 3.696c-25.76 13.984-79.312 43.2-181.52 28.464A317.464 317.464 0 0 1 38.257 292.8a35.2 35.2 0 0 1 .576-40.912L200.113 32h69.216c19.142.018 34.654 15.531 34.672 34.672-.009 7.358-5.971 13.32-13.328 13.328h-79.792l-33.28 166.832 47.728 18.016 6.784-11.84C248.417 224.4 266.977 192 320.001 192c37.712 0 62.592 36.24 81.952 71.664 17.6 32.08 66.592 67.792 68.672 69.312l18.752-25.952a248.613 248.613 0 0 1-59.328-58.688z" fill="#57068c" data-original="#000000" class=""></path><path d="M296.001 356.176v32a216.719 216.719 0 0 0 112.592-28.592l-15.28-28.128a184.753 184.753 0 0 1-97.312 24.72zM95.617 262.624l-24.944 20.064a295.277 295.277 0 0 0 106.736 81.792l12.96-29.248a261.625 261.625 0 0 1-94.752-72.608zM209.297 376.288a258.603 258.603 0 0 0 33.216 7.552l5.04-31.584a234.259 234.259 0 0 1-29.136-6.624l-9.12 30.656z" fill="#57068c" data-original="#000000" class=""></path></g></svg>