<svg height="512" viewBox="0 0 512 512" width="512" xmlns="http://www.w3.org/2000/svg"><g id="_18_Photos" data-name="18 Photos"><g id="Filled"><path d="m160 240h64v16h-64z"/><path d="m240 240h16v16h-16z"/><path d="m304 304h64v16h-64z"/><path d="m272 272h80v16h-80z"/><path d="m304 224h32v16h-32z"/><path d="m144 288h32v16h-32z"/><path d="m432 320h16v16h-16z"/><g id="Outline"><path d="m488 480h-384a24.027 24.027 0 0 1 -24-24v-272a24.027 24.027 0 0 1 24-24h384a24.028 24.028 0 0 1 24 24v272a24.028 24.028 0 0 1 -24 24zm-384-304a8.009 8.009 0 0 0 -8 8v272a8.009 8.009 0 0 0 8 8h384a8.009 8.009 0 0 0 8-8v-272a8.009 8.009 0 0 0 -8-8z"/><path d="m48.145 380.427-47.71-247.071a24.048 24.048 0 0 1 19.015-28.121l377.043-72.8a24.032 24.032 0 0 1 28.107 19.015l16.031 83.033-15.709 3.034-16.022-83.031a8.02 8.02 0 0 0 -9.374-6.34l-377.035 72.8a8.025 8.025 0 0 0 -6.341 9.384l47.705 247.064z"/><path d="m48.145 211.616-14.767-76.473 361.32-69.764 13.347 69.103-15.709 3.036-10.314-53.397-329.9 63.697 11.733 60.765z"/><path d="m112 192v256h368v-256zm352 16v212.686l-60.2-60.2a27.989 27.989 0 0 0 -39.6 0l-32.753 32.753-76.086-91.3a20.013 20.013 0 0 0 -30.727 0l-96.634 115.961v-209.9zm-88.485 163.8a11.993 11.993 0 0 1 16.97 0l60.2 60.2h-137.371zm-82.829 60.2h-155.606l99.841-119.813a4.01 4.01 0 0 1 6.153-.006l77.013 92.419z"/><path d="m408 304a40 40 0 1 1 40-40 40.045 40.045 0 0 1 -40 40zm0-64a24 24 0 1 0 24 24 24.028 24.028 0 0 0 -24-24z"/></g></g></g></svg>