<svg xmlns="http://www.w3.org/2000/svg" version="1.1" xmlns:xlink="http://www.w3.org/1999/xlink" xmlns:svgjs="http://svgjs.com/svgjs" width="512" height="512" x="0" y="0" viewBox="0 0 512.001 512.001" style="enable-background:new 0 0 512 512" xml:space="preserve" class=""><g><path d="m133.137 68.673-17.6-26.736a259.53 259.53 0 0 0-27.2 20.576l20.976 24.16a226.834 226.834 0 0 1 23.824-18z" fill="#57068c" data-original="#000000" class=""></path><path d="M256.001.001a253.617 253.617 0 0 0-110.784 25.152l13.872 28.8a221.662 221.662 0 0 1 96.912-21.952c123.712 0 224 100.288 224 224s-100.288 224-224 224-224-100.288-224-224a221.533 221.533 0 0 1 22.944-98.848l-28.688-14.144A253.17 253.17 0 0 0 .001 256.001c0 141.385 114.615 256 256 256s256-114.615 256-256-114.615-256-256-256z" fill="#57068c" data-original="#000000" class=""></path><path d="M88.129 107.697 64.193 86.401a255.81 255.81 0 0 0-20.8 27.008l26.56 17.84a224.406 224.406 0 0 1 18.176-23.552zM256.001 384.001c70.692 0 128-57.308 128-128s-57.308-128-128-128-128 57.308-128 128c.079 70.659 57.34 127.921 128 128zm0-224c53.019 0 96 42.981 96 96s-42.981 96-96 96-96-42.981-96-96c.053-52.997 43.003-95.947 96-96z" fill="#57068c" data-original="#000000" class=""></path></g></svg>