<?xml version="1.0" encoding="iso-8859-1"?>
<!-- Generator: Adobe Illustrator 19.0.0, SVG Export Plug-In . SVG Version: 6.00 Build 0)  -->
<svg version="1.1" id="Capa_1" xmlns="http://www.w3.org/2000/svg" xmlns:xlink="http://www.w3.org/1999/xlink" x="0px" y="0px"
	 viewBox="0 0 512.001 512.001" style="enable-background:new 0 0 512.001 512.001;" xml:space="preserve">
<g>
	<g>
		<g>
			<path d="M133.137,68.673l-17.6-26.736c-9.508,6.255-18.594,13.128-27.2,20.576l20.976,24.16
				C116.851,80.156,124.809,74.143,133.137,68.673z"/>
			<path d="M256.001,0.001C217.646-0.1,179.768,8.5,145.217,25.153l13.872,28.8c30.227-14.557,63.363-22.063,96.912-21.952
				c123.712,0,224,100.288,224,224s-100.288,224-224,224s-224-100.288-224-224c-0.103-34.281,7.751-68.118,22.944-98.848
				l-28.688-14.144C8.878,178.133-0.11,216.812,0.001,256.001c0,141.385,114.615,256,256,256s256-114.615,256-256
				S397.386,0.001,256.001,0.001z"/>
			<path d="M88.129,107.697L64.193,86.401c-7.526,8.53-14.475,17.553-20.8,27.008l26.56,17.84
				C75.484,123.005,81.556,115.137,88.129,107.697z"/>
			<path d="M256.001,384.001c70.692,0,128-57.308,128-128s-57.308-128-128-128s-128,57.308-128,128
				C128.08,326.66,185.341,383.922,256.001,384.001z M256.001,160.001c53.019,0,96,42.981,96,96s-42.981,96-96,96s-96-42.981-96-96
				C160.054,203.004,203.004,160.054,256.001,160.001z"/>
		</g>
	</g>
</g>
<g>
</g>
<g>
</g>
<g>
</g>
<g>
</g>
<g>
</g>
<g>
</g>
<g>
</g>
<g>
</g>
<g>
</g>
<g>
</g>
<g>
</g>
<g>
</g>
<g>
</g>
<g>
</g>
<g>
</g>
</svg>
