<?xml version="1.0" encoding="iso-8859-1"?>
<!-- Generator: Adobe Illustrator 19.0.0, SVG Export Plug-In . SVG Version: 6.00 Build 0)  -->
<svg version="1.1" id="Capa_1" xmlns="http://www.w3.org/2000/svg" xmlns:xlink="http://www.w3.org/1999/xlink" x="0px" y="0px"
	 viewBox="0 0 512 512" style="enable-background:new 0 0 512 512;" xml:space="preserve">
<g>
	<g>
		<g>
			<path d="M378.544,479.544c-11.681-32.835-40.189-56.797-74.544-62.656v-45.824c4.392-3.974,8.01-8.726,10.672-14.016L400,391.176
				V244.712l-80-32v-105.6L256,0.456l-64,106.656v105.6l-80,32v146.464l85.328-34.128c2.662,5.29,6.28,10.042,10.672,14.016v45.824
				c-34.355,5.859-62.863,29.821-74.544,62.656H0v32h158.688l2.592-12.8c6.123-29.779,32.318-51.163,62.72-51.2h16v-64h32v64h16
				c30.402,0.037,56.597,21.421,62.72,51.2l2.592,12.8H512v-32H378.544z M320,247.176l48,19.2v77.536l-48-19.2V247.176z
				 M192,324.712l-48,19.2v-77.536l48-19.2V324.712z M256,62.632l19.744,32.912h-39.488L256,62.632z M288,335.544
				c0,8.837-7.163,16-16,16h-32c-8.837,0-16-7.163-16-16v-32h64V335.544z M288,271.544h-64v-144h64V271.544z"/>
			<rect x="208" y="479.544" width="32" height="32"/>
			<rect x="272" y="479.544" width="32" height="32"/>
			<rect x="416" y="415.544" width="32" height="32"/>
			<rect x="64" y="415.544" width="32" height="32"/>
		</g>
	</g>
</g>
<g>
</g>
<g>
</g>
<g>
</g>
<g>
</g>
<g>
</g>
<g>
</g>
<g>
</g>
<g>
</g>
<g>
</g>
<g>
</g>
<g>
</g>
<g>
</g>
<g>
</g>
<g>
</g>
<g>
</g>
</svg>
