<svg xmlns="http://www.w3.org/2000/svg" version="1.1" xmlns:xlink="http://www.w3.org/1999/xlink" xmlns:svgjs="http://svgjs.com/svgjs" width="512" height="512" x="0" y="0" viewBox="0 0 512 512" style="enable-background:new 0 0 512 512" xml:space="preserve" class=""><g><path d="M378.544 479.544A96.304 96.304 0 0 0 304 416.888v-45.824a47.999 47.999 0 0 0 10.672-14.016L400 391.176V244.712l-80-32v-105.6L256 .456l-64 106.656v105.6l-80 32v146.464l85.328-34.128A47.999 47.999 0 0 0 208 371.064v45.824a96.304 96.304 0 0 0-74.544 62.656H0v32h158.688l2.592-12.8c6.123-29.779 32.318-51.163 62.72-51.2h16v-64h32v64h16c30.402.037 56.597 21.421 62.72 51.2l2.592 12.8H512v-32H378.544zM320 247.176l48 19.2v77.536l-48-19.2v-77.536zm-128 77.536-48 19.2v-77.536l48-19.2v77.536zm64-262.08 19.744 32.912h-39.488L256 62.632zm32 272.912c0 8.837-7.163 16-16 16h-32c-8.837 0-16-7.163-16-16v-32h64v32zm0-64h-64v-144h64v144z" fill="#57068c" data-original="#000000"></path><path d="M208 479.544h32v32h-32zM272 479.544h32v32h-32zM416 415.544h32v32h-32zM64 415.544h32v32H64z" fill="#57068c" data-original="#000000"></path></g></svg>