<?xml version="1.0" encoding="UTF-8"?>
<svg xmlns="http://www.w3.org/2000/svg" xmlns:xlink="http://www.w3.org/1999/xlink" xmlns:svgjs="http://svgjs.com/svgjs" version="1.1" width="512" height="512" x="0" y="0" viewBox="0 0 512.458 512.458" style="enable-background:new 0 0 512 512" xml:space="preserve" class="">
  <g>
<g xmlns="http://www.w3.org/2000/svg">
	<g>
		<g>
			<path d="M256.23,32.001c25.184,0.056,50.178,4.351,73.936,12.704l10.528-30.208C313.553,4.958,284.999,0.057,256.23,0.001     c-38.586-0.102-76.685,8.61-111.392,25.472l13.952,28.8C189.148,39.519,222.477,31.901,256.23,32.001z" fill="#57068c" data-original="#000000" class=""/>
			<path d="M497.734,171.537l-30.208,10.528c41.069,116.696-20.238,244.59-136.934,285.659S86.003,447.486,44.933,330.791     c-8.456-24.026-12.752-49.319-12.703-74.79c-0.09-34.069,7.668-67.701,22.672-98.288l-28.8-14.048     C8.957,178.623,0.104,217.065,0.23,256.001c-0.253,141.385,114.158,256.204,255.542,256.457     C397.157,512.71,511.977,398.3,512.229,256.915C512.281,227.839,507.379,198.967,497.734,171.537z" fill="#57068c" data-original="#000000" class=""/>
			<path d="M132.87,69.025l-17.6-26.672c-9.505,6.275-18.581,13.175-27.168,20.656l21.024,24.096     C116.637,80.565,124.568,74.526,132.87,69.025z" fill="#57068c" data-original="#000000" class=""/>
			<path d="M87.99,108.177l-24-21.152c-7.518,8.554-14.466,17.592-20.8,27.056l26.608,17.76     C75.331,123.559,81.409,115.653,87.99,108.177z" fill="#57068c" data-original="#000000" class=""/>
			<path d="M336.23,153.377l-91.312,91.312l22.624,22.624l91.312-91.312h67.888l76.96-76.96l-60.272-30.16L413.19,8.529     l-76.96,76.96V153.377z M368.23,98.737l36.192-36.176l15.008,30.24l30.176,15.072l-36.112,36.128H368.23V98.737z" fill="#57068c" data-original="#000000" class=""/>
			<path d="M300.294,85.649c-14.385-3.762-29.195-5.66-44.064-5.648c-97.202,0-176,78.798-176,176s78.798,176,176,176     s176-78.798,176-176c0.012-14.869-1.886-29.679-5.648-44.064l-30.944,8.128c3.06,11.733,4.604,23.81,4.592,35.936     c0,79.529-64.471,144-144,144s-144-64.471-144-144s64.471-144,144-144c12.126-0.012,24.203,1.532,35.936,4.592L300.294,85.649z" fill="#57068c" data-original="#000000" class=""/>
			<path d="M256.23,192.001c2.376,0.072,4.744,0.307,7.088,0.704l1.744,0.256l4.368-31.696l-1.6-0.24     c-3.838-0.609-7.714-0.951-11.6-1.024c-53.019,0-96,42.981-96,96s42.981,96,96,96s96-42.981,96-96     c-0.073-3.886-0.415-7.762-1.024-11.6l-0.24-1.6l-31.696,4.368l0.256,1.744c0.397,2.344,0.632,4.712,0.704,7.088     c0,35.346-28.654,64-64,64c-35.346,0-64-28.654-64-64C192.23,220.655,220.884,192.001,256.23,192.001z" fill="#57068c" data-original="#000000" class=""/>
		</g>
	</g>
</g>
<g xmlns="http://www.w3.org/2000/svg">
</g>
<g xmlns="http://www.w3.org/2000/svg">
</g>
<g xmlns="http://www.w3.org/2000/svg">
</g>
<g xmlns="http://www.w3.org/2000/svg">
</g>
<g xmlns="http://www.w3.org/2000/svg">
</g>
<g xmlns="http://www.w3.org/2000/svg">
</g>
<g xmlns="http://www.w3.org/2000/svg">
</g>
<g xmlns="http://www.w3.org/2000/svg">
</g>
<g xmlns="http://www.w3.org/2000/svg">
</g>
<g xmlns="http://www.w3.org/2000/svg">
</g>
<g xmlns="http://www.w3.org/2000/svg">
</g>
<g xmlns="http://www.w3.org/2000/svg">
</g>
<g xmlns="http://www.w3.org/2000/svg">
</g>
<g xmlns="http://www.w3.org/2000/svg">
</g>
<g xmlns="http://www.w3.org/2000/svg">
</g>
</g>
</svg>
