<?xml version="1.0" encoding="iso-8859-1"?>
<!-- Generator: Adobe Illustrator 19.0.0, SVG Export Plug-In . SVG Version: 6.00 Build 0)  -->
<svg version="1.1" id="Capa_1" xmlns="http://www.w3.org/2000/svg" xmlns:xlink="http://www.w3.org/1999/xlink" x="0px" y="0px"
	 viewBox="0 0 512 512" style="enable-background:new 0 0 512 512;" xml:space="preserve">
<g>
	<g>
		<g>
			<path d="M432,352h-0.416c10.589-13.766,16.357-30.633,16.416-48c0-44.183-35.817-80-80-80c-44.183,0-80,35.817-80,80
				c0.059,17.367,5.827,34.234,16.416,48H128v96h160v32H0v32h320v-96H160v-32h272c26.51,0,48,21.49,48,48v80h32v-80
				C511.947,387.839,476.161,352.053,432,352z M368,352c-26.51,0-48-21.49-48-48c0-26.51,21.49-48,48-48c26.51,0,48,21.49,48,48
				C416,330.51,394.51,352,368,352z"/>
			<rect x="416" y="448" width="32" height="64"/>
			<polygon points="96,416 32,416 32,32 288,32 288,0 0,0 0,448 96,448 			"/>
			<polygon points="448,0 448,32 480,32 480,336 512,336 512,0 			"/>
			<rect x="64" y="112" width="384" height="32"/>
			<rect x="64" y="192" width="224" height="32"/>
			<rect x="64" y="272" width="192" height="32"/>
			<rect x="384" width="32" height="32"/>
			<rect x="320" width="32" height="32"/>
		</g>
	</g>
</g>
<g>
</g>
<g>
</g>
<g>
</g>
<g>
</g>
<g>
</g>
<g>
</g>
<g>
</g>
<g>
</g>
<g>
</g>
<g>
</g>
<g>
</g>
<g>
</g>
<g>
</g>
<g>
</g>
<g>
</g>
</svg>
