<svg xmlns="http://www.w3.org/2000/svg" version="1.1" xmlns:xlink="http://www.w3.org/1999/xlink" xmlns:svgjs="http://svgjs.com/svgjs" width="512" height="512" x="0" y="0" viewBox="0 0 512 512" style="enable-background:new 0 0 512 512" xml:space="preserve" class=""><g><path d="m413.232 303.168-10.112-30.336-122.944 40.976v-48.752l152.24-91.344-16.48-27.424-135.76 81.456v-61.12L318.8 128h57.376V96H350.8l36.688-36.688-22.624-22.624-84.688 84.688V0h-32v89.376l-68.688-68.688-22.624 22.624 91.312 91.312v92.224l-65.872-41.92.192-.08-48-96-28.64 14.304 24.304 48.592-33.392-21.248-17.184 27.008 55.808 35.504-55.456 33.28 16.48 27.424 69.152-41.488 82.608 52.56v48.128l-106.384-39.904-11.232 29.984 117.616 44.096V384h32v-36.48l66.032-22 52.368 39.28 19.2-25.6-34.656-25.984zM248.176 480h32v32h-32zM248.176 416h32v32h-32z" fill="#57068c" data-original="#000000"></path></g></svg>