<?xml version="1.0" encoding="iso-8859-1"?>
<!-- Generator: Adobe Illustrator 19.0.0, SVG Export Plug-In . SVG Version: 6.00 Build 0)  -->
<svg version="1.1" id="Capa_1" xmlns="http://www.w3.org/2000/svg" xmlns:xlink="http://www.w3.org/1999/xlink" x="0px" y="0px"
	 viewBox="0 0 512 512" style="enable-background:new 0 0 512 512;" xml:space="preserve">
<g>
	<g>
		<g>
			<polygon points="413.232,303.168 403.12,272.832 280.176,313.808 280.176,265.056 432.416,173.712 415.936,146.288 
				280.176,227.744 280.176,166.624 318.8,128 376.176,128 376.176,96 350.8,96 387.488,59.312 364.864,36.688 280.176,121.376 
				280.176,0 248.176,0 248.176,89.376 179.488,20.688 156.864,43.312 248.176,134.624 248.176,226.848 182.304,184.928 
				182.496,184.848 134.496,88.848 105.856,103.152 130.16,151.744 96.768,130.496 79.584,157.504 135.392,193.008 79.936,226.288 
				96.416,253.712 165.568,212.224 248.176,264.784 248.176,312.912 141.792,273.008 130.56,302.992 248.176,347.088 248.176,384 
				280.176,384 280.176,347.52 346.208,325.52 398.576,364.8 417.776,339.2 383.12,313.216 			"/>
			<rect x="248.176" y="480" width="32" height="32"/>
			<rect x="248.176" y="416" width="32" height="32"/>
		</g>
	</g>
</g>
<g>
</g>
<g>
</g>
<g>
</g>
<g>
</g>
<g>
</g>
<g>
</g>
<g>
</g>
<g>
</g>
<g>
</g>
<g>
</g>
<g>
</g>
<g>
</g>
<g>
</g>
<g>
</g>
<g>
</g>
</svg>
