<svg height="512pt" viewBox="-5 0 512 512.01093" width="512pt" xmlns="http://www.w3.org/2000/svg"><path d="m307.796875 346.019531c-111.503906-27.476562-179.695313-140.058593-152.40625-251.609375l15.535156 3.808594c-25.179687 102.980469 37.78125 206.898438 140.710938 232.265625zm0 0"/><path d="m315.453125 314.9375c-94.328125-23.261719-152.03125-118.488281-128.984375-212.871094l15.535156 3.808594c-20.949218 85.804688 31.503906 172.375 117.257813 193.527344zm0 0"/><path d="m357.398438 40.011719c-22.09375 0-40 17.90625-40 40 0 22.089843 17.90625 40 40 40 22.089843 0 40-17.910157 40-40-.027344-22.082031-17.921876-39.972657-40-40zm0 64c-13.253907 0-24-10.746094-24-24 0-13.253907 10.746093-24 24-24 13.253906 0 24 10.746093 24 24 0 13.253906-10.746094 24-24 24zm0 0"/><path d="m501.398438 144.011719c.128906-46.789063-22.542969-90.703125-60.761719-117.691407-38.21875-26.992187-87.191407-33.667968-131.238281-17.894531-58.195313-17.84375-121.40625-7.003906-170.328126 29.210938-48.921874 36.214843-77.746093 93.503906-77.671874 154.375v21.984375l-61.39453175 114.015625h45.39453175v104h80v80h16v-80h43.3125l74.34375-74.34375-11.3125-11.3125-69.65625 69.65625h-116.6875v-104h-34.609376l50.609376-93.984375v-26.015625c-.171876-52.429688 23.117187-102.183594 63.480468-135.640625 40.363282-33.453125 93.578125-47.105469 145.0625-37.207032-67.214844 38.203126-92.203125 122.707032-56.570312 191.320313 35.628906 68.613281 119.128906 96.78125 189.042968 63.773437-27.914062 69.984376-113.25 142.855469-114.183593 143.648438l-2.832031 2.402344v91.703125h16v-84.335938c17.070312-14.914062 102.398437-92.410156 121.703124-165.226562 31.039063-21.429688 52.445313-54.167969 59.632813-91.199219l.648437-.574219-.480468-.535156c1.625-8.617187 2.460937-17.363281 2.496094-26.128906zm-251.199219 69.773437 67.445312-74.183594 42.3125 42.3125-58.65625 76.984376c-20.777343-10.171876-38.429687-25.753907-51.101562-45.113282zm107.199219 58.226563c-13.878907-.019531-27.660157-2.308594-40.800782-6.777344l113.28125-148.648437 51.648438 58.113281c-14.144532 57.078125-65.324219 97.203125-124.128906 97.3125zm127.472656-117.601563-55.953125-62.976562-59.144531 77.601562-52.65625-52.648437-75.105469 82.65625c-22.636719-47.441407-13.949219-103.902344 21.902343-142.347657 35.851563-38.441406 91.570313-51.039062 140.472657-31.761718 48.902343 19.277344 81.035156 66.511718 81.011719 119.078125 0 3.496093-.25 6.933593-.527344 10.398437zm0 0"/></svg>