<svg xmlns="http://www.w3.org/2000/svg" version="1.1" xmlns:xlink="http://www.w3.org/1999/xlink" xmlns:svgjs="http://svgjs.com/svgjs" width="512" height="512" x="0" y="0" viewBox="0 0 512.976 512.976" style="enable-background:new 0 0 512 512" xml:space="preserve" class=""><g><path d="M504.528 397.214 328.096 44.286C308.352 4.76 260.305-11.276 220.779 8.468a80.002 80.002 0 0 0-35.819 35.819l-18.032 36.24 28.624 14.304 18.096-36.224c11.843-23.717 40.67-33.344 64.387-21.501a48.001 48.001 0 0 1 21.501 21.501l176.368 352.848a47.582 47.582 0 0 1 5.136 21.44c-.079 26.477-21.523 47.921-48 48H80.08c-26.508-.035-48.001-21.492-48.08-48a47.534 47.534 0 0 1 5.152-21.44l86.784-173.52-28.624-14.305L8.528 397.214A79.306 79.306 0 0 0 0 432.958c.071 44.185 35.895 79.974 80.08 80h352.896c44.154-.07 79.93-35.846 80-80a79.09 79.09 0 0 0-8.448-35.744z" fill="#57068c" data-original="#000000"></path><path d="m152.542 109.124 28.621 14.31-14.31 28.621-28.621-14.31zM123.923 166.374l28.62 14.31-14.31 28.622-28.62-14.31zM240.528 128.254h32v224h-32zM240.528 384.254h32v32h-32z" fill="#57068c" data-original="#000000"></path></g></svg>