<svg xmlns="http://www.w3.org/2000/svg" version="1.1" xmlns:xlink="http://www.w3.org/1999/xlink" xmlns:svgjs="http://svgjs.com/svgjs" width="512" height="512" x="0" y="0" viewBox="0 0 512.031 512.031" style="enable-background:new 0 0 512 512" xml:space="preserve" class=""><g><path d="M208.023 384h96v-96h-96v96zm32-64h32v32h-32v-32zM300.967 256 355.815 0H156.231l54.848 256h89.888zm15.264-224-41.152 192h-38.112L195.815 32h120.416z" fill="#57068c" data-original="#000000"></path><path d="M437.031 74.992 414.423 97.6c87.482 87.482 87.482 229.318 0 316.8s-229.318 87.482-316.8 0a222.545 222.545 0 0 1-65.6-158.4 225.417 225.417 0 0 1 6.4-53.008l-31.168-7.536c-21.095 86.837 4.577 178.39 67.744 241.6 99.981 99.972 262.076 99.965 362.048-.016s99.965-262.076-.016-362.048zM95.511 99.744 72.567 77.44a262.958 262.958 0 0 0-22.112 25.936l25.6 19.088a227.925 227.925 0 0 1 19.456-22.72zM59.959 147.568l-27.936-15.536a254.329 254.329 0 0 0-14.496 30.912l29.824 11.584a220.184 220.184 0 0 1 12.608-26.96z" fill="#57068c" data-original="#000000"></path><path d="M120.263 391.76c75.589 74.367 197.153 73.376 271.52-2.213 73.511-74.719 73.511-194.587 0-269.307l-22.624 22.624c62.484 62.483 62.485 163.79.002 226.274s-163.79 62.485-226.274.002-62.485-163.79-.002-226.274l.002-.002-22.624-22.624c-74.86 75.027-74.86 196.493 0 271.52z" fill="#57068c" data-original="#000000"></path></g></svg>