<?xml version="1.0" encoding="iso-8859-1"?>
<!-- Generator: Adobe Illustrator 19.0.0, SVG Export Plug-In . SVG Version: 6.00 Build 0)  -->
<svg version="1.1" id="Capa_1" xmlns="http://www.w3.org/2000/svg" xmlns:xlink="http://www.w3.org/1999/xlink" x="0px" y="0px"
	 viewBox="0 0 512.976 512.976" style="enable-background:new 0 0 512.976 512.976;" xml:space="preserve">
<g>
	<g>
		<g>
			<path d="M504.528,397.214L328.096,44.286C308.352,4.76,260.305-11.276,220.779,8.468c-15.504,7.745-28.074,20.314-35.819,35.819
				l-18.032,36.24l28.624,14.304l18.096-36.224c11.843-23.717,40.67-33.344,64.387-21.501c9.308,4.648,16.853,12.193,21.501,21.501
				l176.368,352.848c3.367,6.646,5.126,13.99,5.136,21.44c-0.079,26.477-21.523,47.921-48,48H80.08
				c-26.508-0.035-48.001-21.492-48.08-48c0.013-7.452,1.778-14.796,5.152-21.44l86.784-173.52L95.312,223.63L8.528,397.214
				C2.926,408.297,0.005,420.54,0,432.958c0.071,44.185,35.895,79.974,80.08,80h352.896c44.154-0.07,79.93-35.846,80-80
				C513.004,420.546,510.11,408.301,504.528,397.214z"/>
			<rect x="143.701" y="114.595" transform="matrix(0.8944 0.4472 -0.4472 0.8944 75.2631 -57.6329)" width="32" height="32"/>
			<rect x="115.08" y="171.847" transform="matrix(0.8944 0.4472 -0.4472 0.8944 97.8452 -38.7893)" width="32" height="32"/>
			<rect x="240.528" y="128.254" width="32" height="224"/>
			<rect x="240.528" y="384.254" width="32" height="32"/>
		</g>
	</g>
</g>
<g>
</g>
<g>
</g>
<g>
</g>
<g>
</g>
<g>
</g>
<g>
</g>
<g>
</g>
<g>
</g>
<g>
</g>
<g>
</g>
<g>
</g>
<g>
</g>
<g>
</g>
<g>
</g>
<g>
</g>
</svg>
