<?xml version="1.0" encoding="iso-8859-1"?>
<!-- Generator: Adobe Illustrator 19.0.0, SVG Export Plug-In . SVG Version: 6.00 Build 0)  -->
<svg version="1.1" id="Capa_1" xmlns="http://www.w3.org/2000/svg" xmlns:xlink="http://www.w3.org/1999/xlink" x="0px" y="0px"
	 viewBox="0 0 512.031 512.031" style="enable-background:new 0 0 512.031 512.031;" xml:space="preserve">
<g>
	<g>
		<g>
			<path d="M208.023,384h96v-96h-96V384z M240.023,320h32v32h-32V320z"/>
			<path d="M300.967,256L355.815,0H156.231l54.848,256H300.967z M316.231,32l-41.152,192h-38.112L195.815,32H316.231z"/>
			<path d="M437.031,74.992L414.423,97.6c87.482,87.482,87.482,229.318,0,316.8s-229.318,87.482-316.8,0
				c-42.144-41.92-65.765-98.958-65.6-158.4c0.026-17.86,2.174-35.655,6.4-53.008l-31.168-7.536
				c-21.095,86.837,4.577,178.39,67.744,241.6c99.981,99.972,262.076,99.965,362.048-0.016S537.012,174.964,437.031,74.992z"/>
			<path d="M95.511,99.744L72.567,77.44c-7.924,8.158-15.31,16.822-22.112,25.936l25.6,19.088
				C82.036,114.473,88.535,106.883,95.511,99.744z"/>
			<path d="M59.959,147.568l-27.936-15.536c-5.519,9.968-10.362,20.295-14.496,30.912l29.824,11.584
				C50.941,165.267,55.153,156.26,59.959,147.568z"/>
			<path d="M120.263,391.76c75.589,74.367,197.153,73.376,271.52-2.213c73.511-74.719,73.511-194.587,0-269.307l-22.624,22.624
				c62.484,62.483,62.485,163.79,0.002,226.274s-163.79,62.485-226.274,0.002s-62.485-163.79-0.002-226.274
				c0.001-0.001,0.001-0.001,0.002-0.002l-22.624-22.624C45.403,195.267,45.403,316.733,120.263,391.76z"/>
		</g>
	</g>
</g>
<g>
</g>
<g>
</g>
<g>
</g>
<g>
</g>
<g>
</g>
<g>
</g>
<g>
</g>
<g>
</g>
<g>
</g>
<g>
</g>
<g>
</g>
<g>
</g>
<g>
</g>
<g>
</g>
<g>
</g>
</svg>
